<?xml version="1.0" encoding="utf-8"?>
<!-- Generator: Adobe Illustrator 22.1.0, SVG Export Plug-In . SVG Version: 6.00 Build 0)  -->
<svg version="1.1" id="Capa_1" xmlns="http://www.w3.org/2000/svg" xmlns:xlink="http://www.w3.org/1999/xlink" x="0px" y="0px"
	 viewBox="0 0 480 480" style="enable-background:new 0 0 480 480;" xml:space="preserve">
<style type="text/css">
	.st0{fill:#B3D5E4;}
	.st1{fill:#FFFFFF;}
	.st2{fill:#73D0F4;}
	.st3{fill:#23374E;}
</style>
<path class="st0" d="M80,312l40,24c0-26.5-8-56-48-56s-48,29.5-48,56C24,336,72,336,80,312z"/>
<path class="st1" d="M120,336l-40-24c-8,24-56,24-56,24c0,26.5,31,48,48,48S120,362.5,120,336z"/>
<polygon class="st2" points="72,440 88,424 72,384 56,424 "/>
<path class="st1" d="M288,288l-40-24c-8,24-56,24-56,24c0,26.5,31,48,48,48S288,314.5,288,288z"/>
<path class="st0" d="M248,264l40,24c0-26.5-8-56-48-56s-48,29.5-48,56C192,288,240,288,248,264z"/>
<polygon class="st2" points="240,392 256,376 240,336 224,376 "/>
<path class="st0" d="M416,312l40,24c0-26.5-8-56-48-56s-48,29.5-48,56C360,336,408,336,416,312z"/>
<path class="st1" d="M456,336l-40-24c-8,24-56,24-56,24c0,26.5,31,48,48,48S456,362.5,456,336z"/>
<polygon class="st2" points="408,440 424,424 408,384 392,424 "/>
<g>
	<path class="st0" d="M120.7,389.8c-5.7-3.8-12.3-5.8-19.1-5.8H72l16,40l-16,16l-16-16l16-40H42.4c-6.8,0-13.4,2-19.1,5.8
		C13.8,396.2,8,406.9,8,418.4V472h128v-53.6C136,406.9,130.2,396.2,120.7,389.8z"/>
	<path class="st0" d="M288.7,341.8c-5.7-3.8-12.3-5.8-19.1-5.8H240l16,40l-16,16l-16-16l16-40h-29.6c-6.8,0-13.4,2-19.1,5.8
		c-9.6,6.4-15.3,17.1-15.3,28.6V424h128v-53.6C304,358.9,298.2,348.2,288.7,341.8z"/>
	<path class="st0" d="M456.7,389.8c-5.7-3.8-12.3-5.8-19.1-5.8H408l16,40l-16,16l-16-16l16-40h-29.6c-6.8,0-13.4,2-19.1,5.8
		c-9.6,6.4-15.3,17.1-15.3,28.6V472h128v-53.6C472,406.9,466.2,396.2,456.7,389.8z"/>
</g>
<g>
	<path class="st3" d="M16,418.4c0-8.9,4.4-17.1,11.8-22c4.4-2.9,9.4-4.4,14.7-4.4h17.8l-11.6,29c-1.2,3-0.5,6.4,1.8,8.6l16,16
		c1.6,1.6,3.6,2.3,5.7,2.3s4.1-0.8,5.7-2.3l16-16c2.3-2.3,3-5.7,1.8-8.6l-11.6-29h17.8c5.2,0,10.3,1.5,14.7,4.4
		c7.4,4.9,11.8,13.1,11.8,22V480h16v-61.6c0-14.2-7.1-27.4-18.9-35.3c-5.5-3.7-11.7-5.9-18.2-6.7c11.9-10.3,21.1-24.7,21.1-40.4
		c0-52.9-30.5-64-56-64s-56,11.1-56,64c0,15.7,9.2,30.1,21.1,40.4c-6.5,0.8-12.7,3.1-18.2,6.7C7.1,391,0,404.2,0,418.4V480h16V418.4
		z M72,428.7l-6.6-6.6l6.6-16.5l6.6,16.5L72,428.7z M33.1,343.6c13.7-1.1,38.4-5.3,49.9-20.4l28.6,17.2C108.4,359.9,84.3,376,72,376
		C60.4,376,38.3,361.7,33.1,343.6z M72,288c22.7,0,35.2,10.7,38.8,33.1l-26.7-16c-2.1-1.2-4.6-1.5-6.9-0.6c-2.3,0.8-4,2.7-4.8,5
		c-4,12.1-25.9,16.7-40,18.1C34.6,300.7,47.2,288,72,288z"/>
	<rect x="32" y="448" class="st3" width="16" height="32"/>
	<rect x="96" y="448" class="st3" width="16" height="32"/>
	<path class="st3" d="M312,432v-61.6c0-14.2-7.1-27.4-18.9-35.3c-5.5-3.7-11.7-5.9-18.2-6.7c11.9-10.3,21.1-24.7,21.1-40.4
		c0-52.9-30.5-64-56-64s-56,11.1-56,64c0,15.7,9.2,30.1,21.1,40.4c-6.5,0.8-12.7,3.1-18.2,6.7c-11.8,7.9-18.9,21.1-18.9,35.3V432h16
		v-61.6c0-8.9,4.4-17.1,11.8-22c4.4-2.9,9.4-4.4,14.7-4.4h17.8l-11.6,29c-1.2,3-0.5,6.4,1.8,8.6l16,16c1.6,1.6,3.6,2.3,5.6,2.3
		s4.1-0.8,5.7-2.3l16-16c2.3-2.3,3-5.7,1.8-8.6L252,344h17.8c5.2,0,10.3,1.5,14.7,4.4c7.4,4.9,11.8,13.1,11.8,22V432H312z
		 M201.1,295.6c13.7-1.1,38.4-5.3,49.9-20.4l28.6,17.2c-3.2,19.6-27.4,35.7-39.6,35.7C228.4,328,206.3,313.7,201.1,295.6z M240,240
		c22.7,0,35.2,10.7,38.8,33.1l-26.7-16c-2.1-1.2-4.6-1.5-6.9-0.6c-2.3,0.8-4,2.7-4.8,5c-4,12.1-25.9,16.7-40,18.1
		C202.6,252.7,215.2,240,240,240z M240,380.7l-6.6-6.6l6.6-16.5l6.6,16.5L240,380.7z"/>
	<rect x="200" y="400" class="st3" width="16" height="32"/>
	<rect x="264" y="400" class="st3" width="16" height="32"/>
	<path class="st3" d="M461.1,383.1c-5.5-3.7-11.7-5.9-18.2-6.7c11.9-10.3,21.1-24.7,21.1-40.4c0-52.9-30.5-64-56-64s-56,11.1-56,64
		c0,15.7,9.2,30.1,21.1,40.4c-6.5,0.8-12.7,3.1-18.2,6.7c-11.8,7.9-18.9,21.1-18.9,35.3V480h16v-61.6c0-8.9,4.4-17.1,11.8-22
		c4.4-2.9,9.4-4.4,14.7-4.4h17.8l-11.6,29c-1.2,3-0.5,6.4,1.8,8.6l16,16c1.6,1.6,3.6,2.3,5.6,2.3s4.1-0.8,5.7-2.3l16-16
		c2.3-2.3,3-5.7,1.8-8.6L420,392h17.8c5.2,0,10.3,1.5,14.7,4.4c7.4,4.9,11.8,13.1,11.8,22V480h16v-61.6
		C480,404.2,472.9,391,461.1,383.1z M369.1,343.6c13.7-1.1,38.4-5.3,49.9-20.4l28.6,17.2c-3.2,19.6-27.4,35.7-39.6,35.7
		C396.4,376,374.3,361.7,369.1,343.6z M408,288c22.7,0,35.2,10.7,38.8,33.1l-26.7-16c-2.1-1.2-4.6-1.5-6.9-0.6c-2.3,0.8-4,2.7-4.8,5
		c-4,12.1-25.9,16.7-40,18.1C370.6,300.7,383.2,288,408,288z M408,428.7l-6.6-6.6l6.6-16.5l6.6,16.5L408,428.7z"/>
	<rect x="368" y="448" class="st3" width="16" height="32"/>
	<rect x="432" y="448" class="st3" width="16" height="32"/>
	<path class="st3" d="M139,233c-1.1-4.3-1.9-8.8-2.4-13.3l-15.9,1.8c0.6,5.2,1.5,10.3,2.7,15.3L139,233z"/>
	<path class="st3" d="M121.3,190.5c-0.7,5.1-1.2,10.3-1.2,15.5l16,0.3c0.1-4.5,0.4-9,1.1-13.4L121.3,190.5z"/>
	<path class="st3" d="M124.5,175.3l15.4,4.4c1.2-4.3,2.7-8.6,4.5-12.7l-14.7-6.3C127.7,165.4,125.9,170.3,124.5,175.3z"/>
	<path class="st3" d="M128.2,251.7c1.9,4.8,4.1,9.6,6.6,14.1l14-7.7c-2.2-3.9-4.1-8-5.7-12.2L128.2,251.7z"/>
	<path class="st3" d="M143.2,278.9c3,4.2,6.4,8.2,10,11.9l11.6-11c-3.1-3.2-6-6.7-8.7-10.3L143.2,278.9z"/>
	<path class="st3" d="M327,290.7c3.6-3.7,6.9-7.8,10-11.9l-12.9-9.4c-2.7,3.6-5.6,7.1-8.6,10.4L327,290.7z"/>
	<path class="st3" d="M355.4,175.1c-1.4-5-3.2-9.9-5.2-14.7l-14.7,6.4c1.8,4.1,3.3,8.4,4.5,12.7L355.4,175.1z"/>
	<path class="st3" d="M359.3,221.4l-15.9-1.8c-0.5,4.5-1.3,8.9-2.4,13.3l15.5,3.8C357.8,231.7,358.7,226.5,359.3,221.4z"/>
	<path class="st3" d="M358.7,190.3l-15.8,2.3c0.7,4.4,1,8.9,1.1,13.4l16-0.3C359.9,200.7,359.5,195.4,358.7,190.3z"/>
	<path class="st3" d="M345.3,265.6c2.5-4.5,4.7-9.3,6.6-14.1l-14.9-5.8c-1.6,4.2-3.5,8.3-5.7,12.2L345.3,265.6z"/>
</g>
<polygon class="st3" points="196.4,109.9 182.2,124.1 228,170 329.8,68.1 315.6,53.9 228,141.5 "/>
</svg>
