<?xml version="1.0" encoding="iso-8859-1"?>
<!-- Generator: Adobe Illustrator 19.0.0, SVG Export Plug-In . SVG Version: 6.00 Build 0)  -->
<svg version="1.1" id="Capa_1" xmlns="http://www.w3.org/2000/svg" xmlns:xlink="http://www.w3.org/1999/xlink" x="0px" y="0px"
	 viewBox="0 0 480 480"  style="fill:#73D0F4;" xml:space="preserve">
<g>
	<g>
		<path style="fill:#3D6889;" d="M476.688,169.519l-232-168c-2.798-2.023-6.578-2.023-9.376,0l-232,168c-3.579,2.591-4.38,7.593-1.789,11.171
			c1.504,2.077,3.912,3.307,6.477,3.309h464c4.418-0.002,7.998-3.585,7.997-8.003C479.995,173.431,478.765,171.023,476.688,169.519z
			 M32.688,167.999L240,17.871l207.312,150.128H32.688z"/>
	</g>
</g>
<g>
	<g>
		<path style="fill:#3D6889;" d="M448,431.999H32c-4.418,0-8,3.582-8,8s3.582,8,8,8h416c4.418,0,8-3.582,8-8S452.418,431.999,448,431.999z"/>
	</g>
</g>
<g>
	<g>
		<path style="fill:#3D6889;" d="M472,463.999H8c-4.418,0-8,3.582-8,8s3.582,8,8,8h464c4.418,0,8-3.582,8-8S476.418,463.999,472,463.999z"/>
	</g>
</g>
<g>
	<g>
		<path style="fill:#73D0F4;" d="M160,399.999h-16v-184h16c4.418,0,8-3.582,8-8s-3.582-8-8-8H64c-4.418,0-8,3.582-8,8s3.582,8,8,8h16v184H64
			c-4.418,0-8,3.582-8,8s3.582,8,8,8h96c4.418,0,8-3.582,8-8S164.418,399.999,160,399.999z M128,399.999H96v-184h32V399.999z"/>
	</g>
</g>
<g>
	<g>
		<path style="fill:#73D0F4;" d="M288,399.999h-16v-184h16c4.418,0,8-3.582,8-8s-3.582-8-8-8h-96c-4.418,0-8,3.582-8,8s3.582,8,8,8h16v184h-16
			c-4.418,0-8,3.582-8,8s3.582,8,8,8h96c4.418,0,8-3.582,8-8S292.418,399.999,288,399.999z M256,399.999h-32v-184h32V399.999z"/>
	</g>
</g>
<g>
	<g>
		<path style="fill:#73D0F4;" d="M416,399.999h-16v-184h16c4.418,0,8-3.582,8-8s-3.582-8-8-8h-96c-4.418,0-8,3.582-8,8s3.582,8,8,8h16v184h-16
			c-4.418,0-8,3.582-8,8s3.582,8,8,8h96c4.418,0,8-3.582,8-8S420.418,399.999,416,399.999z M384,399.999h-32v-184h32V399.999z"/>
	</g>
</g>
<g>
	<g>
		<path d="M246,87.999h-12c-4.951,0.485-9.386-3.064-10-8c0.614-4.936,5.049-8.485,10-8h30c4.418,0,8-3.582,8-8s-3.582-8-8-8h-16v-8
			c0-4.418-3.582-8-8-8s-8,3.582-8,8v8.184c-13.01,0.41-23.49,10.809-24,23.816c0.589,13.79,12.207,24.514,26,24h12
			c4.951-0.485,9.386,3.064,10,8c-0.614,4.936-5.049,8.485-10,8h-30c-4.418,0-8,3.582-8,8c0,4.418,3.582,8,8,8h16v8
			c0,4.418,3.582,8,8,8s8-3.582,8-8v-8.184c13.01-0.41,23.49-10.809,24-23.816C271.411,98.209,259.793,87.484,246,87.999z"/>
	</g>
</g>
</svg>
