<?xml version="1.0" encoding="utf-8"?>
<!-- Generator: Adobe Illustrator 22.1.0, SVG Export Plug-In . SVG Version: 6.00 Build 0)  -->
<svg version="1.1" id="Capa_1" xmlns="http://www.w3.org/2000/svg" xmlns:xlink="http://www.w3.org/1999/xlink" x="0px" y="0px"
	 viewBox="0 0 480 480" style="enable-background:new 0 0 480 480;" xml:space="preserve">
<style type="text/css">
	.st0{fill:#73D0F4;}
	.st1{fill:#B3D5E4;}
	.st2{fill:#E4D9B3;}
	.st3{fill:#23374E;}
</style>
<path class="st0" d="M51.5,339c0,0-0.1,0-0.1,0.1C51.4,339.1,51.5,339,51.5,339z"/>
<g>
	<rect x="367.3" y="8" class="st1" width="48" height="464"/>
	<rect x="415.3" y="8" class="st1" width="48" height="464"/>
</g>
<g>
	<path class="st0" d="M229.2,176h10.1v-16c0-22.1,17.9-40,40-40c-13.3,0-24-10.7-24-24s10.7-24,24-24s24,10.7,24,24s-10.7,24-24,24
		c22.1,0,40,17.9,40,40v16h16V40h-112v121C225.9,165.7,227.9,170.7,229.2,176L229.2,176z"/>
	<path class="st0" d="M229.2,176c-1.4-5.3-3.3-10.3-5.9-15l0,0C225.9,165.7,227.9,170.7,229.2,176z"/>
</g>
<g>
	<circle class="st2" cx="279.3" cy="96" r="24"/>
	<path class="st2" d="M279.3,120c-22.1,0-40,17.9-40,40v16h80v-16C319.3,137.9,301.4,120,279.3,120z"/>
</g>
<g>
	<path class="st3" d="M217.5,176c0-2.7-0.5,8.1,8.8,8.1c14.1,0,109-0.1,109-0.1c4.4,0,8-3.6,8-8V40c0-4.4-3.6-8-8-8h-112
		c-4.4,0-8,3.6-8,8L217.5,176z M311.3,168h-64v-8c0-17.6,14.4-32,32-32s32,14.4,32,32V168z M263.3,96c0-8.8,7.2-16,16-16
		c8.8,0,16,7.2,16,16c0,8.8-7.2,16-16,16C270.5,112,263.3,104.8,263.3,96z M231.3,48h96v112c0-18.1-10.1-33.8-24.9-42
		c5.5-5.7,8.9-13.5,8.9-22c0-17.6-14.4-32-32-32s-32,14.4-32,32c0,8.5,3.4,16.2,8.9,22c-14.6,8.1-24.5,23.5-24.8,41.2
		c0,0,0-0.1,0-0.1V48z"/>
	<path class="st3" d="M463.3,0h-416c-4.4,0-8,3.6-8,8v464c0,4.4,3.6,8,8,8h416c4.4,0,8-3.6,8-8V8C471.3,3.6,467.7,0,463.3,0z
		 M359.3,464h-304V16h304V464z M407.3,464h-32V16h32V464z M455.3,464h-32V16h32V464z"/>
	<rect x="71.3" y="40" class="st3" width="120" height="16"/>
	<rect x="71.3" y="72" class="st3" width="72" height="16"/>
	<rect x="159.3" y="72" class="st3" width="32" height="16"/>
	<rect x="143.3" y="280" class="st3" width="200" height="16"/>
	<rect x="103.3" y="312" class="st3" width="72" height="16"/>
	<rect x="191.3" y="312" class="st3" width="152" height="16"/>
	<rect x="71.3" y="344" class="st3" width="272" height="16"/>
	<rect x="71.3" y="376" class="st3" width="72" height="16"/>
	<rect x="159.3" y="376" class="st3" width="184" height="16"/>
</g>
</svg>
