<?xml version="1.0" encoding="iso-8859-1"?>
<!-- Generator: Adobe Illustrator 19.0.0, SVG Export Plug-In . SVG Version: 6.00 Build 0)  -->
<svg version="1.1" id="Capa_1" xmlns="http://www.w3.org/2000/svg" xmlns:xlink="http://www.w3.org/1999/xlink" x="0px" y="0px"
	 viewBox="0 0 480 480" style="enable-background:new 0 0 480 480;" xml:space="preserve">
<path style="fill:#73D0F4;" d="M51.531,339.016c-0.04,0.024-0.088,0.04-0.136,0.072C51.443,339.064,51.491,339.048,51.531,339.016z"
	/>
<g>
	<path style="fill:#B3D5E4;" d="M367.307,472V8h-320v272l40-40l8,8l19.48-19.48l0,0c-7.216-10.36-11.48-22.936-11.48-36.52
		c0-35.344,28.656-64,64-64c24.112,0,45.088,13.344,56,33.04V40h112v136h-16h-80h-10.096l0,0c1.32,5.12,2.096,10.464,2.096,16
		c0,35.344-28.656,64-64,64c-13.584,0-26.16-4.264-36.52-11.48l0,0L111.307,264l8,8l-64,64c-1.168,1.168-2.44,2.16-3.776,3.016
		c-0.04,0.024-0.088,0.04-0.136,0.072c-1.304,0.832-2.672,1.496-4.088,2.032V472H367.307z M71.307,80h72H71.307z M159.307,80h32
		H159.307z M71.307,48h120H71.307z M159.307,384h184H159.307z M343.307,288h-200H343.307z M343.307,320h-152H343.307z M175.307,320
		h-72H175.307z M343.307,352h-272H343.307z M143.307,384h-72H143.307z"/>
	<path style="fill:#B3D5E4;" d="M130.787,244.52c10.36,7.216,22.936,11.48,36.52,11.48c35.344,0,64-28.656,64-64
		c0-5.536-0.776-10.88-2.096-16c-1.36-5.272-3.32-10.304-5.904-14.96l0,0c-10.912-19.696-31.888-33.04-56-33.04
		c-35.344,0-64,28.656-64,64c0,13.584,4.264,26.16,11.48,36.52C119.131,234.752,124.555,240.176,130.787,244.52z M167.307,152
		c-22.088,0-40,17.912-40,40C127.307,169.912,145.219,152,167.307,152z"/>
</g>
<g>
	<path style="fill:#73D0F4;" d="M130.787,244.52L130.787,244.52c-6.24-4.344-11.656-9.76-16-16l0,0L95.307,248l16,16L130.787,244.52
		z"/>
	<path style="fill:#73D0F4;" d="M130.787,244.52c-6.232-4.344-11.648-9.76-15.992-15.992
		C119.131,234.752,124.555,240.176,130.787,244.52z"/>
	<path style="fill:#73D0F4;" d="M51.395,339.088c0.04-0.024,0.088-0.04,0.136-0.072c1.336-0.848,2.608-1.848,3.776-3.016l64-64l-8-8
		l-16-16l-8-8l-40,40l-24,24c-8.84,8.84-8.84,23.16,0,32c6.488,6.488,15.936,8.168,24,5.12l0,0
		C48.723,340.592,50.091,339.904,51.395,339.088z"/>
	<path style="fill:#73D0F4;" d="M47.307,341.12L47.307,341.12c1.416-0.536,2.784-1.208,4.088-2.032
		C50.091,339.904,48.723,340.592,47.307,341.12z"/>
	<path style="fill:#73D0F4;" d="M55.307,336c-1.168,1.168-2.44,2.168-3.776,3.016C52.867,338.16,54.139,337.168,55.307,336z"/>
</g>
<g>
	<rect x="367.307" y="8" style="fill:#B3D5E4;" width="48" height="464"/>
	<rect x="415.307" y="8" style="fill:#B3D5E4;" width="48" height="464"/>
</g>
<g>
	<path style="fill:#73D0F4;" d="M229.211,176h10.096v-16c0-22.088,17.912-40,40-40c-13.256,0-24-10.744-24-24s10.744-24,24-24
		s24,10.744,24,24s-10.744,24-24,24c22.088,0,40,17.912,40,40v16h16V40h-112v121.04C225.883,165.696,227.851,170.72,229.211,176
		L229.211,176z"/>
	<path style="fill:#73D0F4;" d="M229.211,176c-1.36-5.272-3.32-10.304-5.904-14.96l0,0C225.883,165.696,227.851,170.72,229.211,176z
		"/>
</g>
<g>
	<circle style="fill:#E4D9B3;" cx="279.307" cy="96" r="24"/>
	<path style="fill:#E4D9B3;" d="M279.307,120c-22.088,0-40,17.912-40,40v16h80v-16C319.307,137.912,301.395,120,279.307,120z"/>
</g>
<g>
	<path style="fill:#23374E;" d="M47.307,480h320h48h48c4.424,0,8-3.584,8-8V8c0-4.416-3.576-8-8-8h-48h-48h-320
		c-4.424,0-8,3.584-8,8v268.688l-21.656,21.656c-11.944,11.944-11.944,31.368,0,43.312c5.968,5.976,13.816,8.96,21.656,8.96V472
		C39.307,476.416,42.883,480,47.307,480z M455.307,464h-32V16h32V464z M407.307,464h-32V16h32V464z M28.963,330.344
		c-5.704-5.704-5.704-14.984,0-20.688l24-24l34.344-34.344l2.344,2.344l16,16l2.344,2.344l-58.344,58.344
		c-1.44,1.432-3.168,2.544-5.168,3.296c-0.016,0.008-0.024,0.016-0.04,0.024C39.235,335.608,33.139,334.52,28.963,330.344z
		 M263.307,96c0-8.824,7.176-16,16-16s16,7.176,16,16s-7.176,16-16,16S263.307,104.824,263.307,96z M279.307,128
		c17.648,0,32,14.352,32,32v8h-64v-8C247.307,142.352,261.659,128,279.307,128z M302.451,117.976
		c5.456-5.744,8.856-13.456,8.856-21.976c0-17.648-14.352-32-32-32s-32,14.352-32,32c0,8.52,3.4,16.232,8.856,21.976
		c-14.568,8.056-24.496,23.456-24.808,41.168c-0.016-0.032-0.024-0.072-0.04-0.104V48h96v112
		C327.307,141.92,317.259,126.16,302.451,117.976z M216.379,165.072c1.056,1.928,2.016,3.952,2.856,6.064
		c0.024,0.056,0.04,0.12,0.064,0.176c0.832,2.128,1.552,4.336,2.152,6.616c1.168,4.512,1.856,9.208,1.856,14.072
		c0,30.88-25.128,56-56,56c-11.992,0-23.08-3.824-32.208-10.264c-5.256-3.704-9.792-8.24-13.504-13.496
		c-6.456-9.128-10.288-20.232-10.288-32.24c0-30.88,25.128-56,56-56C188.427,136,206.843,147.76,216.379,165.072z M114.139,240.496
		c0.376,0.416,0.8,0.784,1.184,1.184c0.736,0.776,1.488,1.528,2.264,2.272c0.416,0.4,0.8,0.84,1.232,1.232l-7.512,7.504L106.619,248
		L114.139,240.496z M60.963,341.656l64-64c3.128-3.128,3.128-8.184,0-11.312L122.619,264l9.344-9.344
		c10.456,5.92,22.496,9.344,35.344,9.344c39.704,0,72-32.304,72-72c0-2.704-0.176-5.368-0.472-8h0.472h80h16c4.424,0,8-3.584,8-8V40
		c0-4.416-3.576-8-8-8h-112c-4.424,0-8,3.584-8,8v98.488c-12.752-11.456-29.552-18.488-48-18.488c-39.704,0-72,32.304-72,72
		c0,12.848,3.424,24.896,9.344,35.344l-9.344,9.344l-2.344-2.344c-3.128-3.128-8.184-3.128-11.312,0l-26.344,26.344V16h304v448h-304
		V346.096c0.096-0.056,0.168-0.144,0.264-0.208C57.475,344.688,59.307,343.32,60.963,341.656z"/>
	<path style="fill:#23374E;" d="M119.307,192h16c0-17.648,14.352-32,32-32v-16C140.835,144,119.307,165.528,119.307,192z"/>
	<rect x="71.307" y="40" style="fill:#23374E;" width="120" height="16"/>
	<rect x="71.307" y="72" style="fill:#23374E;" width="72" height="16"/>
	<rect x="159.307" y="72" style="fill:#23374E;" width="32" height="16"/>
	<rect x="143.307" y="280" style="fill:#23374E;" width="200" height="16"/>
	<rect x="103.307" y="312" style="fill:#23374E;" width="72" height="16"/>
	<rect x="191.307" y="312" style="fill:#23374E;" width="152" height="16"/>
	<rect x="71.307" y="344" style="fill:#23374E;" width="272" height="16"/>
	<rect x="71.307" y="376" style="fill:#23374E;" width="72" height="16"/>
	<rect x="159.307" y="376" style="fill:#23374E;" width="184" height="16"/>
</g>
</svg>
