<?xml version="1.0" encoding="iso-8859-1"?>
<!-- Generator: Adobe Illustrator 18.0.0, SVG Export Plug-In . SVG Version: 6.00 Build 0)  -->
<!DOCTYPE svg PUBLIC "-//W3C//DTD SVG 1.1//EN" "http://www.w3.org/Graphics/SVG/1.1/DTD/svg11.dtd">
<svg version="1.1" id="Capa_1" xmlns="http://www.w3.org/2000/svg" xmlns:xlink="http://www.w3.org/1999/xlink" x="0px" y="0px"
	 viewBox="0 0 320.132 320.132" style="fill:#3D6889;" xml:space="preserve">
<g>
	<path d="M314.628,144.183h-18.266v-22.885c0-18.705-15.219-33.922-33.926-33.922h-29.795c-18.707,0-33.928,15.217-33.928,33.922
		v22.885h-72.417v-15.855h42.361c7.779,0,14.107-6.33,14.107-14.109v-89.73c0-7.779-6.328-14.107-14.107-14.107H37.875
		c-7.779,0-14.107,6.328-14.107,14.107v89.73c0,7.779,6.328,14.109,14.107,14.109h42.362v15.855H5.503
		c-3.039,0-5.503,2.465-5.503,5.504v77.285v77.277c0,3.039,2.464,5.502,5.503,5.502c3.039,0,5.503-2.463,5.503-5.502v-71.775
		h298.121v71.775c0,3.039,2.463,5.502,5.502,5.502s5.504-2.463,5.504-5.502v-77.277v-77.285
		C320.132,146.648,317.668,144.183,314.628,144.183z M209.72,121.299c0-12.637,10.283-22.916,22.922-22.916h29.795
		c12.639,0,22.92,10.279,22.92,22.916v22.885H209.72V121.299z M37.875,117.322c-1.71,0-3.102-1.393-3.102-3.104v-89.73
		c0-1.711,1.392-3.102,3.102-3.102h130.783c1.709,0,3.102,1.391,3.102,3.102v89.73c0,1.711-1.393,3.104-3.102,3.104h-47.863H85.74
		H37.875z M91.243,128.328h24.048v15.855H91.243V128.328z M11.006,221.468v-66.279H85.74h35.055h188.332v66.279H11.006z"/>
	<path style="fill:#73D0F4;" d="M212.552,45.254c0,19.225,15.641,34.865,34.867,34.865c19.225,0,34.865-15.641,34.865-34.865
		c0-19.23-15.641-34.873-34.865-34.873C228.193,10.381,212.552,26.023,212.552,45.254z M271.279,45.254
		c0,13.156-10.703,23.859-23.859,23.859c-13.158,0-23.861-10.703-23.861-23.859c0-13.16,10.703-23.867,23.861-23.867
		C260.576,21.386,271.279,32.093,271.279,45.254z"/>
</g>
<g>
</g>
<g>
</g>
<g>
</g>
<g>
</g>
<g>
</g>
<g>
</g>
<g>
</g>
<g>
</g>
<g>
</g>
<g>
</g>
<g>
</g>
<g>
</g>
<g>
</g>
<g>
</g>
<g>
</g>
</svg>
