<?xml version="1.0" encoding="iso-8859-1"?>
<!-- Generator: Adobe Illustrator 19.0.0, SVG Export Plug-In . SVG Version: 6.00 Build 0)  -->
<svg version="1.1" id="Layer_1" xmlns="http://www.w3.org/2000/svg" xmlns:xlink="http://www.w3.org/1999/xlink" x="0px" y="0px"
	 viewBox="0 0 512 512" style="fill:#3D6889;" xml:space="preserve">
<g>
	<g>
		<path d="M426.197,431.303c-4.141,0-7.498,3.357-7.498,7.498v27.287H93.302V354.634c0-4.141-3.357-7.498-7.498-7.498
			s-7.498,3.357-7.498,7.498v118.952v20.917c0,9.647,7.849,17.496,17.496,17.496h320.398c9.647,0,17.496-7.849,17.496-17.496
			v-20.917v-34.785C433.695,434.66,430.338,431.303,426.197,431.303z M418.698,494.504c0,1.378-1.122,2.499-2.499,2.499H95.801
			c-1.378,0-2.499-1.122-2.499-2.499v-13.419h325.397V494.504z"/>
	</g>
</g>
<g>
	<g>
		<path style="fill:#73D0F4;" d="M414.412,267.333h-28.588c-18.791-36.502-53.671-63.87-93.306-74.857c21.776-12.643,36.462-36.204,36.462-63.146v-28.183
			V72.981c0-15.091-4.604-29.127-12.481-40.776C303.372,12.789,281.151,0,256,0c-40.242,0-72.981,32.74-72.981,72.981v28.175v28.175
			c0,26.942,14.686,50.504,36.462,63.146c-39.634,10.987-74.515,38.354-93.306,74.857H97.587c-10.632,0-19.282,8.65-19.282,19.282
			v43.025c0,4.141,3.357,7.498,7.498,7.498c4.141,0,7.498-3.357,7.498-7.498v-43.025c0-2.362,1.923-4.285,4.285-4.285h316.826
			c2.363,0,4.286,1.923,4.286,4.285v127.191c0,4.141,3.357,7.498,7.498,7.498c4.141,0,7.498-3.357,7.498-7.498V286.615
			C433.695,275.984,425.045,267.333,414.412,267.333z M256.001,14.997c31.972,0,57.984,26.012,57.984,57.984v20.031
			c-27.014-4.549-37.89-31.916-38.37-33.16c-1.04-2.745-3.586-4.63-6.516-4.825c-2.929-0.2-5.702,1.338-7.095,3.921
			c-0.178,0.33-17.48,31.394-63.988,34.464V72.981h-0.001C198.016,41.008,224.028,14.997,256.001,14.997z M198.016,129.331v-20.889
			c37.408-2.133,59.088-19.955,69.496-31.813c7.339,11.709,21.961,28.538,46.473,31.544v21.158
			c0,31.269-24.884,56.822-55.886,57.931c-0.665-0.019-1.331-0.049-1.996-0.059L256,187.202l-0.103,0.001
			c-0.665,0.009-1.331,0.04-1.996,0.059C222.899,186.152,198.016,160.6,198.016,129.331z M224.78,267.333h-81.467
			c16.737-28.019,44.289-49.218,75.547-59.065l13.49,26.208L224.78,267.333z M240.169,267.333l6.07-26.349h19.522l6.07,26.349
			H240.169z M267.155,225.988h-22.309l-11.06-21.486c3.102-0.595,6.227-1.089,9.371-1.456c0.043-0.005,0.086-0.01,0.129-0.015
			c2.673-0.309,5.36-0.53,8.055-0.669c0.271-0.014,0.542-0.027,0.813-0.039c0.63-0.028,1.261-0.041,1.892-0.06
			c0.652,0.017,1.299,0.049,1.955,0.049c0.656,0,1.304-0.032,1.955-0.049c0.631,0.019,1.262,0.031,1.892,0.06
			c0.271,0.012,0.542,0.025,0.813,0.039c2.694,0.139,5.381,0.36,8.054,0.669c0.044,0.005,0.088,0.01,0.132,0.015
			c3.143,0.367,6.267,0.861,9.369,1.456L267.155,225.988z M287.22,267.333l-7.569-32.856l13.49-26.209
			c31.256,9.847,58.809,31.047,75.547,59.065H287.22z"/>
	</g>
</g>
<g>
	<g>
		<path d="M256,346.502c-17.111,0-31.032,13.921-31.032,31.032s13.921,31.032,31.032,31.032s31.032-13.921,31.032-31.032
			S273.111,346.502,256,346.502z M256,393.57c-8.842,0-16.035-7.194-16.035-16.036c0-8.842,7.193-16.036,16.035-16.036
			s16.036,7.193,16.036,16.036S264.842,393.57,256,393.57z"/>
	</g>
</g>
<g>
</g>
<g>
</g>
<g>
</g>
<g>
</g>
<g>
</g>
<g>
</g>
<g>
</g>
<g>
</g>
<g>
</g>
<g>
</g>
<g>
</g>
<g>
</g>
<g>
</g>
<g>
</g>
<g>
</g>
</svg>
