<?xml version="1.0" encoding="iso-8859-1"?>
<!-- Generator: Adobe Illustrator 19.0.0, SVG Export Plug-In . SVG Version: 6.00 Build 0)  -->
<svg version="1.1" id="Capa_1" xmlns="http://www.w3.org/2000/svg" xmlns:xlink="http://www.w3.org/1999/xlink" x="0px" y="0px"
	 viewBox="0 0 480 480" style="enable-background:new 0 0 480 480;" xml:space="preserve">
<g>
	<path style="fill:#B3D5E4;" d="M440,392c17.672,0,32-14.328,32-32V40c0-17.672-14.328-32-32-32H40C22.328,8,8,22.328,8,40v320
		c0,17.672,14.328,32,32,32h128h144H440z M40,328V40h400v288H40z M200,360h80H200z"/>
	<polygon style="fill:#B3D5E4;" points="48,440 8,472 472,472 432,440 352,440 128,440 	"/>
	<polygon style="fill:#B3D5E4;" points="352,440 312,392 168,392 128,440 	"/>
</g>
<g>
	<path style="fill:#73D0F4;" d="M247.936,80.592c0.384,0.224,0.752,0.456,1.136,0.688C248.688,81.048,248.32,80.816,247.936,80.592z
		"/>
	<path style="fill:#73D0F4;" d="M177.2,85.184c-0.208,0.16-0.424,0.312-0.632,0.472C176.776,85.496,176.992,85.344,177.2,85.184z"/>
	<path style="fill:#73D0F4;" d="M231.84,74.056c0.64,0.168,1.296,0.312,1.928,0.496C233.128,74.368,232.48,74.224,231.84,74.056z"/>
	<path style="fill:#73D0F4;" d="M184.064,80.592c-0.384,0.224-0.752,0.456-1.136,0.688C183.312,81.048,183.68,80.816,184.064,80.592
		z"/>
	<path style="fill:#73D0F4;" d="M266.68,97.024c0.072,0.096,0.144,0.192,0.216,0.288C266.824,97.216,266.76,97.12,266.68,97.024z"/>
	<path style="fill:#73D0F4;" d="M208.128,72.536c-0.736,0.088-1.464,0.216-2.192,0.336
		C206.664,72.752,207.384,72.624,208.128,72.536z"/>
	<path style="fill:#73D0F4;" d="M254.8,85.184c0.208,0.16,0.424,0.312,0.632,0.472C255.224,85.496,255.008,85.344,254.8,85.184z"/>
	<path style="fill:#73D0F4;" d="M200.16,74.056c-0.648,0.168-1.288,0.312-1.928,0.496C198.864,74.368,199.52,74.224,200.16,74.056z"
		/>
	<path style="fill:#73D0F4;" d="M165.32,97.024c-0.072,0.096-0.144,0.192-0.216,0.288C165.176,97.216,165.24,97.12,165.32,97.024z"
		/>
</g>
<path style="fill:#E4D9B3;" d="M440,40H40v288h400V40z M408,200v-48l-64,64l-32-16l-72,64l-24-16l-56,48l56-48l24,16l72-64l32,16
	l64-64h-48h48V200z M408,104H271.368l0,0c5.456,9.416,8.632,20.328,8.632,32c0,35.344-28.656,64-64,64
	c-13.584,0-26.16-4.264-36.52-11.48l0,0L160,208l8,8l-64,64c-8.84,8.84-23.16,8.84-32,0s-8.84-23.16,0-32l64-64l8,8l19.48-19.48l0,0
	C156.264,162.16,152,149.584,152,136c0-11.672,3.176-22.584,8.632-32l0,0H72V72h144h192V104z"/>
<path style="fill:#73D0F4;" d="M223.872,72.536c0.736,0.088,1.464,0.216,2.192,0.336C225.336,72.752,224.616,72.624,223.872,72.536z
	"/>
<g>
	<path style="fill:#B3D5E4;" d="M266.68,97.024c-3.264-4.24-7.048-8.064-11.256-11.368c-0.208-0.16-0.424-0.312-0.632-0.472
		c-1.832-1.408-3.752-2.704-5.728-3.904c-0.376-0.232-0.752-0.464-1.136-0.688c-4.416-2.56-9.168-4.592-14.168-6.04
		c-0.632-0.184-1.288-0.328-1.928-0.496c-1.888-0.48-3.816-0.88-5.768-1.184c-0.728-0.112-1.456-0.248-2.192-0.336
		C221.288,72.216,218.672,72,216,72s-5.288,0.216-7.872,0.536c-0.736,0.088-1.464,0.216-2.192,0.336
		c-1.952,0.312-3.88,0.704-5.768,1.184c-0.64,0.168-1.296,0.312-1.928,0.496c-5,1.448-9.752,3.48-14.168,6.04
		c-0.384,0.224-0.752,0.456-1.136,0.688c-1.984,1.2-3.896,2.504-5.728,3.904c-0.208,0.16-0.424,0.312-0.632,0.472
		c-4.208,3.304-7.992,7.128-11.256,11.368c-0.072,0.096-0.144,0.192-0.216,0.288c-1.616,2.128-3.12,4.36-4.464,6.68
		C155.176,113.416,152,124.328,152,136c0,13.584,4.264,26.16,11.48,36.52c4.344,6.232,9.76,11.648,15.992,15.992
		C189.84,195.736,202.416,200,216,200c35.344,0,64-28.656,64-64c0-11.672-3.176-22.584-8.632-32
		c-1.344-2.328-2.848-4.552-4.464-6.68C266.824,97.216,266.76,97.12,266.68,97.024z M176,136c0-22.088,17.912-40,40-40
		C193.912,96,176,113.912,176,136z"/>
	<path style="fill:#B3D5E4;" d="M163.48,172.52L163.48,172.52L144,192l16,16l19.48-19.48l0,0
		C173.248,184.176,167.824,178.752,163.48,172.52z"/>
</g>
<g>
	<path style="fill:#73D0F4;" d="M163.48,172.52c4.344,6.232,9.76,11.648,15.992,15.992
		C173.248,184.176,167.824,178.752,163.48,172.52z"/>
	<path style="fill:#73D0F4;" d="M136,184l-64,64c-8.84,8.84-8.84,23.16,0,32s23.16,8.84,32,0l64-64l-8-8l-16-16L136,184z"/>
</g>
<path style="fill:#B3D5E4;" d="M165.32,97.024c3.272-4.24,7.04-8.064,11.256-11.368c0.208-0.16,0.424-0.312,0.632-0.472
	c1.832-1.4,3.744-2.704,5.728-3.904c0.376-0.232,0.752-0.464,1.136-0.688c4.416-2.552,9.16-4.592,14.168-6.04
	c0.64-0.184,1.288-0.328,1.928-0.496c1.896-0.48,3.816-0.88,5.768-1.184c0.728-0.12,1.456-0.24,2.192-0.336
	c2.584-0.32,5.2-0.536,7.872-0.536H72v32h88.632l0,0c1.352-2.328,2.848-4.552,4.464-6.68C165.176,97.216,165.24,97.12,165.32,97.024
	z"/>
<g>
	<path style="fill:#73D0F4;" d="M198.232,74.552c-5.008,1.448-9.744,3.488-14.168,6.04C188.48,78.032,193.232,76,198.232,74.552z"/>
	<path style="fill:#73D0F4;" d="M160.632,104c1.344-2.328,2.848-4.552,4.464-6.68C163.48,99.448,161.984,101.672,160.632,104z"/>
	<path style="fill:#73D0F4;" d="M165.32,97.024c3.264-4.24,7.048-8.064,11.256-11.368C172.36,88.96,168.584,92.784,165.32,97.024z"
		/>
	<path style="fill:#73D0F4;" d="M205.928,72.872c-1.952,0.312-3.88,0.704-5.768,1.184C202.048,73.576,203.976,73.176,205.928,72.872
		z"/>
	<path style="fill:#73D0F4;" d="M216,72c-2.672,0-5.288,0.216-7.872,0.536C210.712,72.216,213.328,72,216,72z"/>
	<path style="fill:#73D0F4;" d="M182.936,81.28c-1.984,1.2-3.896,2.504-5.728,3.904C179.032,83.776,180.952,82.48,182.936,81.28z"/>
</g>
<path style="fill:#B3D5E4;" d="M223.872,72.536c0.736,0.088,1.464,0.216,2.192,0.336c1.952,0.312,3.88,0.704,5.768,1.184
	c0.648,0.168,1.288,0.312,1.928,0.496c5.008,1.448,9.744,3.488,14.168,6.04c0.384,0.224,0.752,0.456,1.136,0.688
	c1.984,1.2,3.896,2.504,5.728,3.904c0.208,0.16,0.424,0.312,0.632,0.472c4.216,3.304,7.984,7.128,11.256,11.368
	c0.072,0.096,0.144,0.192,0.216,0.288c1.624,2.128,3.12,4.352,4.464,6.68l0,0H408v-32H216C218.672,72,221.288,72.216,223.872,72.536
	z"/>
<g>
	<path style="fill:#73D0F4;" d="M271.368,104c-1.352-2.328-2.848-4.552-4.464-6.68C268.52,99.448,270.016,101.672,271.368,104z"/>
	<path style="fill:#73D0F4;" d="M216,72c2.672,0,5.288,0.216,7.872,0.536C221.288,72.216,218.672,72,216,72z"/>
	<path style="fill:#73D0F4;" d="M226.072,72.872c1.952,0.312,3.88,0.704,5.768,1.184C229.944,73.576,228.024,73.176,226.072,72.872z
		"/>
	<path style="fill:#73D0F4;" d="M249.064,81.28c1.984,1.2,3.896,2.504,5.728,3.904C252.96,83.784,251.048,82.48,249.064,81.28z"/>
	<path style="fill:#73D0F4;" d="M266.68,97.024c-3.272-4.24-7.04-8.064-11.256-11.368C259.632,88.968,263.416,92.784,266.68,97.024z
		"/>
	<path style="fill:#73D0F4;" d="M233.768,74.552c5,1.448,9.752,3.48,14.168,6.04C243.512,78.04,238.776,76,233.768,74.552z"/>
</g>
<g>
	<path style="fill:#23374E;" d="M40,400h110.92l-26.664,32H48c-1.824,0-3.576,0.616-5,1.752l-40,32
		c-2.648,2.12-3.672,5.688-2.544,8.896S4.6,480,8,480h464c3.4,0,6.424-2.144,7.544-5.352s0.104-6.776-2.544-8.896l-40-32
		c-1.424-1.136-3.176-1.752-5-1.752h-76.248l-26.664-32H440c22.056,0,40-17.944,40-40V40c0-22.056-17.944-40-40-40H40
		C17.944,0,0,17.944,0,40v320C0,382.056,17.944,400,40,400z M449.192,464H30.808l20-16H128h224h77.192L449.192,464z M334.92,432
		H145.08l26.672-32h136.504L334.92,432z M16,40c0-13.232,10.768-24,24-24h400c13.232,0,24,10.768,24,24v320
		c0,13.232-10.768,24-24,24H312H168H40c-13.232,0-24-10.768-24-24V40z"/>
	<path style="fill:#23374E;" d="M40,336h400c4.424,0,8-3.584,8-8V40c0-4.416-3.576-8-8-8H40c-4.424,0-8,3.584-8,8v288
		C32,332.416,35.576,336,40,336z M48,48h384v272H48V48z"/>
	<rect x="200" y="352" style="fill:#23374E;" width="80" height="16"/>
	<path style="fill:#23374E;" d="M168,136h16c0-17.648,14.352-32,32-32V88C189.528,88,168,109.528,168,136z"/>
	<path style="fill:#23374E;" d="M408,64H216H72c-4.424,0-8,3.584-8,8v32c0,4.416,3.576,8,8,8h76.2c-2.672,7.52-4.2,15.576-4.2,24
		c0,12.848,3.424,24.896,9.344,35.344L144,180.688l-2.344-2.344c-3.128-3.128-8.184-3.128-11.312,0l-64,64
		c-11.944,11.944-11.944,31.368,0,43.312c5.968,5.976,13.816,8.96,21.656,8.96s15.688-2.984,21.656-8.96l64-64
		c3.128-3.128,3.128-8.184,0-11.312L171.312,208l9.344-9.344C191.112,204.576,203.152,208,216,208c39.704,0,72-32.304,72-72
		c0-8.424-1.528-16.48-4.2-24H408c4.424,0,8-3.584,8-8V72C416,67.584,412.424,64,408,64z M80,96V80h90.848
		c-2.648,2.136-5.112,4.488-7.432,6.976c-0.304,0.32-0.592,0.648-0.888,0.976c-2.288,2.544-4.448,5.2-6.352,8.048H80z
		 M98.344,274.344c-5.704,5.704-14.984,5.704-20.688,0s-5.704-14.984,0-20.688L136,195.312l2.344,2.344l16,16l2.344,2.344
		L98.344,274.344z M167.504,189.176L160,196.688L155.312,192l7.512-7.504c0.376,0.416,0.8,0.784,1.184,1.184
		c0.736,0.776,1.488,1.528,2.264,2.272C166.696,188.352,167.08,188.784,167.504,189.176z M216,192
		c-11.992,0-23.08-3.824-32.208-10.264c-5.256-3.704-9.792-8.24-13.504-13.496C163.832,159.112,160,148.008,160,136
		c0-10.304,2.848-19.936,7.72-28.24c1.144-1.944,2.392-3.8,3.736-5.568c0.136-0.176,0.264-0.36,0.408-0.544
		c2.928-3.752,6.296-7.088,10.008-9.952c0.136-0.104,0.28-0.208,0.424-0.312c1.832-1.384,3.736-2.664,5.712-3.816
		c0.032-0.024,0.064-0.04,0.104-0.064c4.048-2.336,8.392-4.144,12.904-5.416c0.368-0.104,0.736-0.192,1.104-0.288
		c1.816-0.472,3.656-0.832,5.52-1.12c0.52-0.08,1.024-0.176,1.552-0.24C211.44,80.176,213.704,80,216,80s4.56,0.176,6.816,0.456
		c0.52,0.064,1.032,0.16,1.544,0.24c1.864,0.288,3.704,0.648,5.52,1.12c0.368,0.096,0.736,0.184,1.104,0.28
		c4.52,1.272,8.864,3.08,12.912,5.416c0.032,0.016,0.064,0.04,0.104,0.064c1.984,1.152,3.888,2.432,5.72,3.816
		c0.136,0.104,0.28,0.208,0.416,0.312c3.712,2.864,7.08,6.2,10.008,9.952c0.136,0.176,0.264,0.36,0.4,0.536
		c1.352,1.768,2.6,3.632,3.744,5.576C269.152,116.064,272,125.696,272,136C272,166.88,246.872,192,216,192z M400,96H275.824
		c-1.912-2.848-4.072-5.504-6.352-8.048c-0.296-0.328-0.584-0.656-0.888-0.976c-2.32-2.488-4.776-4.84-7.432-6.976H400V96z"/>
	<path style="fill:#23374E;" d="M408,144h-48v16h28.688l-46.264,46.264l-26.84-13.424c-2.904-1.464-6.456-0.992-8.888,1.176
		l-67.392,59.896l-18.856-12.576c-2.976-1.984-6.92-1.752-9.64,0.584l-56,48l10.408,12.152l51.4-44.056l18.96,12.64
		c3.032,2.016,7.04,1.736,9.752-0.672l67.952-60.4l27.16,13.576c3.072,1.52,6.784,0.944,9.232-1.504L400,171.312V200h16v-48
		C416,147.584,412.424,144,408,144z"/>
</g>
</svg>
