<?xml version="1.0" encoding="UTF-8"?>
<svg enable-background="new 0 0 480 480" version="1.1" viewBox="0 0 480 480" xml:space="preserve" xmlns="http://www.w3.org/2000/svg">
<g fill="#73D0F4">
	<path d="m240.96 114.33c-0.2-0.512-0.448-1-0.648-1.504 0.936 2.296 1.792 4.632 2.568 7.008-0.288-0.896-0.608-1.776-0.928-2.664-0.344-0.936-0.632-1.904-0.992-2.84z"/>
	<path d="m243.38 121.32c0.888 2.872 1.616 5.8 2.256 8.768-0.088-0.424-0.144-0.864-0.24-1.28-0.576-2.536-1.256-5.032-2.016-7.488z"/>
	<path d="m247.52 142.45c0.288 3.152 0.48 6.328 0.48 9.552 0-3-0.16-5.952-0.408-8.888-0.016-0.224-0.056-0.44-0.072-0.664z"/>
	<path d="m226.33 88.504c-0.288-0.368-0.6-0.712-0.888-1.072 1.072 1.352 2.096 2.744 3.104 4.152-0.552-0.776-1.088-1.56-1.664-2.32-0.192-0.248-0.36-0.512-0.552-0.76z"/>
	<path d="m234.89 101.51c-1.344-2.408-2.76-4.768-4.288-7.056 1.528 2.288 2.952 4.648 4.288 7.056z"/>
	<path d="m238.99 109.79c-0.808-1.8-1.664-3.576-2.56-5.32 0.896 1.744 1.76 3.512 2.56 5.32z"/>
	<path d="m247.2 139.66c-0.272-2.312-0.624-4.608-1.048-6.872 0.424 2.272 0.776 4.56 1.048 6.872z"/>
	<path d="m102.4 132.84c-3.968 1.712-7.888 3.536-11.784 5.4 3.896-1.872 7.824-3.68 11.784-5.4z"/>
	<path d="m74.518 146.48c-4.352 2.376-8.64 4.848-12.88 7.416 4.24-2.576 8.536-5.04 12.88-7.416z"/>
	<path d="m116.95 126.93c-3.632 1.376-7.208 2.848-10.792 4.344 3.576-1.496 7.168-2.968 10.792-4.344z"/>
	<path d="m88.262 139.36c-4.2 2.048-8.352 4.2-12.472 6.432 4.112-2.232 8.272-4.376 12.472-6.432z"/>
	<path d="m213.05 74.384c-0.184-0.168-0.36-0.336-0.552-0.496 1.384 1.216 2.768 2.432 4.088 3.72-1.136-1.112-2.344-2.16-3.536-3.224z"/>
	<path d="m219.71 80.856c1 1.064 2 2.144 2.96 3.256-0.368-0.424-0.696-0.872-1.072-1.288-0.608-0.68-1.264-1.304-1.888-1.968z"/>
	<path d="m204.25 67.336c0.952 0.68 1.88 1.392 2.808 2.096-0.632-0.48-1.232-1-1.872-1.464-0.304-0.224-0.632-0.416-0.936-0.632z"/>
	<path d="m197.13 62.712c0.936 0.56 1.872 1.104 2.784 1.688-0.296-0.192-0.576-0.4-0.872-0.592-0.624-0.384-1.28-0.72-1.912-1.096z"/>
	<path d="m163.23 269.68c-0.496 0.12-0.992 0.216-1.488 0.32 0.488-0.104 0.992-0.2 1.488-0.32z"/>
	<path d="m156.73 270.97c-0.288 0.048-0.568 0.072-0.856 0.112 0.288-0.04 0.576-0.064 0.856-0.112z"/>
	<path d="m169.61 267.88c-0.552 0.184-1.112 0.344-1.672 0.512 0.552-0.168 1.112-0.328 1.672-0.512z"/>
	<path d="m132.13 271.08c-0.288-0.04-0.568-0.064-0.856-0.112 0.28 0.048 0.568 0.072 0.856 0.112z"/>
	<path d="m181.76 262.8c-0.496 0.256-0.992 0.52-1.496 0.768 0.504-0.248 1-0.512 1.496-0.768z"/>
	<path d="m187.34 259.66c-0.368 0.232-0.736 0.472-1.104 0.696 0.368-0.224 0.736-0.464 1.104-0.696z"/>
	<path d="m175.8 265.58c-0.552 0.232-1.104 0.456-1.656 0.672 0.56-0.216 1.112-0.44 1.656-0.672z"/>
	<path d="m126.26 270.01c-0.496-0.112-0.992-0.208-1.488-0.32 0.488 0.112 0.992 0.208 1.488 0.32z"/>
	<path d="m131.93 121.64c-3.144 1.024-6.24 2.152-9.352 3.272 3.104-1.12 6.208-2.24 9.352-3.272z"/>
	<path d="m147.35 117.01c-2.384 0.656-4.736 1.408-7.104 2.12 2.36-0.712 4.712-1.464 7.104-2.12z"/>
	<path d="m101.76 260.35c-0.376-0.224-0.736-0.472-1.104-0.696 0.368 0.232 0.736 0.472 1.104 0.696z"/>
	<path d="m113.85 266.25c-0.552-0.216-1.104-0.44-1.656-0.672 0.544 0.232 1.096 0.456 1.656 0.672z"/>
	<path d="m120.06 268.39c-0.56-0.168-1.12-0.336-1.672-0.512 0.56 0.184 1.12 0.344 1.672 0.512z"/>
	<path d="m107.73 263.57c-0.504-0.248-1-0.512-1.496-0.768 0.504 0.256 1 0.52 1.496 0.768z"/>
	<path d="m207.75 38.64c2.248-1.576 4.536-3.088 6.856-4.56-2.32 1.48-4.608 2.976-6.856 4.56z"/>
	<path d="m471.15 192.73c-0.456 4.576-1.2 9.064-2.016 13.528 0.816-4.464 1.568-8.944 2.016-13.528z"/>
	<path d="m230.08 25.416c15.144-7.456 31.56-12.736 48.872-15.336-17.32 2.608-33.728 7.84-48.872 15.336z"/>
	<path d="m468.75 208.78c-2.112 10.536-5.2 20.72-9.168 30.464 3.968-9.736 7.08-19.912 9.168-30.464z"/>
	<path d="m196.54 47.2c1.672-1.4 3.424-2.704 5.152-4.04-1.728 1.336-3.48 2.632-5.152 4.04z"/>
	<path d="m219.3 31.24c2.768-1.624 5.544-3.224 8.408-4.688-2.864 1.472-5.648 3.056-8.408 4.688z"/>
	<path d="m450.64 94.144c1.168 2.088 2.224 4.256 3.304 6.4-1.08-2.152-2.128-4.304-3.304-6.4z"/>
	<path d="m470.69 155.98c0.184 1.552 0.384 3.104 0.528 4.672-0.144-1.568-0.344-3.112-0.528-4.672z"/>
	<path d="m204.25 67.328c0.312 0.224 0.64 0.416 0.944 0.632-0.312-0.216-0.64-0.408-0.944-0.632z"/>
	<path d="m243.38 121.32c0.76 2.464 1.432 4.96 2.016 7.488-0.576-2.536-1.256-5.032-2.016-7.488z"/>
	<path d="m241.94 117.18c0.312 0.88 0.632 1.768 0.928 2.664-0.288-0.896-0.608-1.776-0.928-2.664z"/>
	<path d="m248 152c0-3-0.16-5.952-0.408-8.888 0.248 2.936 0.408 5.888 0.408 8.888z"/>
	<path d="m240.3 112.82c0.208 0.512 0.456 1 0.648 1.512-0.192-0.52-0.44-1.008-0.648-1.512z"/>
	<path d="m463.02 122.16c0.536 1.584 1.152 3.136 1.64 4.744-0.488-1.608-1.096-3.152-1.64-4.744z"/>
	<path d="m219.71 80.848c0.632 0.664 1.288 1.296 1.888 1.976-0.608-0.68-1.264-1.312-1.888-1.976z"/>
	<path d="m213.05 74.384c1.192 1.064 2.4 2.104 3.544 3.224-1.144-1.112-2.352-2.16-3.544-3.224z"/>
	<path d="m225.44 87.432c0.288 0.368 0.608 0.704 0.896 1.072-0.288-0.368-0.608-0.712-0.896-1.072z"/>
	<path d="m230.6 94.448c1.528 2.296 2.952 4.656 4.296 7.064-1.344-2.408-2.768-4.776-4.296-7.064z"/>
	<path d="m236.42 104.46s0 8e-3 8e-3 8e-3c0.904 1.744 1.76 3.52 2.56 5.32v8e-3c-0.8-1.808-1.664-3.584-2.568-5.336z"/>
	<path d="m226.87 89.264c0.576 0.76 1.112 1.544 1.664 2.32 0 0 8e-3 8e-3 8e-3 0.016-0.552-0.784-1.088-1.576-1.672-2.336z"/>
	<path d="m468.16 140.48c0.344 1.592 0.608 3.208 0.904 4.808-0.296-1.6-0.56-3.216-0.904-4.808z"/>
</g>
<path d="m425.03 217.81 6.784-40.712c0.12-0.728 0.144-1.464 0.064-2.2l-7.456-67.072c-0.272-2.416 0.576-4.824 2.296-6.544l17.584-17.584c-30.048-45.576-81.632-75.696-140.3-75.696-8.448 0-16.68 0.832-24.784 2.04l22.392 55.984c1.4 3.488 5.032 5.536 8.744 4.92l37.584-6.264c2.552-0.424 5.144 0.408 6.976 2.232l34.176 34.176c1.824 1.824 2.656 4.424 2.232 6.976l-6.768 40.624c-0.352 2.12-1.544 4.008-3.304 5.24l-67.216 47.056c-4.728 3.312-11.304 0.672-12.432-4.984l-4.528-22.632c-0.648-3.232-3.208-5.736-6.456-6.312l-42.616-7.528v0.472h-8.048c0 0.328 0.048 0.64 0.048 0.968 0 35.48-15.76 69.136-43.024 91.848-1.616 1.344-3.288 2.584-4.976 3.784v39.4l72 24 2.056 19.504c12.208 2.832 24.864 4.496 37.944 4.496 70.392 0 130.58-43.336 155.58-104.75l-29.808-12.776c-3.392-1.448-5.352-5.032-4.744-8.664zm-46.904 34.76-54.576 42.448c-4.992 3.88-12.304 0.712-12.88-5.592l-5.776-63.528c-0.464-5.088 3.896-9.296 8.96-8.664l50.504 6.312c2.304 0.288 4.376 1.568 5.664 3.504l9.848 14.768c2.328 3.488 1.568 8.176-1.744 10.752z" fill="#B3D5E4"/>
<g fill="#73D0F4">
	<path d="m457.13 107.14c0.944 2.096 1.864 4.2 2.72 6.344-0.856-2.144-1.776-4.248-2.72-6.344z"/>
	<path d="m197.12 62.712 8e-3 8e-3c0.632 0.376 1.288 0.712 1.912 1.104-0.624-0.4-1.28-0.736-1.92-1.112z"/>
	<path d="m245.4 128.81c0.096 0.424 0.152 0.856 0.24 1.28-0.088-0.424-0.144-0.856-0.24-1.28z"/>
	<path d="m227.7 26.552c0.776-0.4 1.584-0.752 2.368-1.144-0.784 0.392-1.584 0.744-2.368 1.144z"/>
	<path d="m205.18 67.968c0.64 0.464 1.24 0.984 1.872 1.464h8e-3c-0.632-0.48-1.232-1-1.88-1.464z"/>
	<path d="m199.05 63.816c0.296 0.184 0.576 0.4 0.872 0.592-0.296-0.192-0.576-0.408-0.872-0.592z"/>
	<path d="m240.96 114.33c0.36 0.936 0.656 1.896 0.992 2.84-0.344-0.936-0.632-1.904-0.992-2.84z"/>
	<path d="m214.61 34.08c1.544-0.976 3.112-1.92 4.688-2.848-1.576 0.936-3.136 1.872-4.688 2.848z"/>
	<path d="m212.47 73.856c0.016 8e-3 0.024 0.024 0.04 0.032 0.184 0.16 0.368 0.336 0.552 0.496-0.2-0.176-0.392-0.352-0.592-0.528z"/>
	<path d="m201.69 43.16c1.992-1.544 4-3.064 6.056-4.52-2.064 1.456-4.064 2.984-6.056 4.52z"/>
	<path d="m185.88 56.848c3.4-3.384 6.984-6.568 10.664-9.648-3.688 3.072-7.264 6.264-10.664 9.648 0.024 8e-3 0.048 0.024 0.08 0.04 0.016 8e-3 0.032 0.016 0.04 0.024-0.04-0.024-0.08-0.048-0.12-0.064z"/>
	<path d="m221.6 82.824c0.376 0.416 0.704 0.864 1.072 1.288-0.368-0.424-0.696-0.872-1.072-1.288z"/>
	<path d="m226.33 88.504c0.192 0.248 0.352 0.512 0.544 0.76-0.184-0.248-0.352-0.512-0.544-0.76z"/>
	<path d="m279.21 10.032c-0.088 8e-3 -0.168 0.032-0.256 0.048 0.088-0.016 0.176-0.024 0.264-0.04l-8e-3 -8e-3z"/>
	<path d="m246.15 132.79c0.424 2.272 0.776 4.56 1.048 6.872v8e-3c-0.272-2.32-0.624-4.616-1.048-6.88z"/>
	<path d="m247.52 142.45c0.024 0.224 0.056 0.44 0.072 0.664-0.016-0.224-0.056-0.44-0.072-0.664z"/>
</g>
<path d="m186 56.904c3.848 1.704 7.536 3.664 11.12 5.808 0.632 0.376 1.296 0.72 1.92 1.112 0.296 0.184 0.576 0.4 0.872 0.592 1.472 0.944 2.912 1.912 4.328 2.92 0.312 0.216 0.632 0.416 0.944 0.632 0.64 0.472 1.24 0.984 1.872 1.472 1.856 1.416 3.656 2.88 5.408 4.416 0.2 0.176 0.392 0.352 0.584 0.528 1.192 1.064 2.4 2.104 3.544 3.224 1.072 1.048 2.08 2.152 3.112 3.24 0.624 0.664 1.288 1.296 1.888 1.976 0.376 0.416 0.704 0.864 1.072 1.288 0.944 1.088 1.864 2.192 2.76 3.32 0.288 0.368 0.608 0.704 0.896 1.072 0.192 0.248 0.352 0.512 0.544 0.76 0.576 0.76 1.12 1.552 1.68 2.336 0.68 0.952 1.4 1.872 2.048 2.848 1.528 2.288 2.952 4.656 4.296 7.072 0.536 0.968 1.024 1.96 1.528 2.944 0.904 1.752 1.768 3.528 2.568 5.336 0.448 1.008 0.888 2.008 1.304 3.024 0.208 0.512 0.456 1 0.648 1.512 0.36 0.936 0.656 1.896 0.992 2.84 0.312 0.888 0.64 1.768 0.928 2.664 0.16 0.496 0.36 0.976 0.512 1.48 0.76 2.456 1.432 4.952 2.016 7.488 0.096 0.424 0.152 0.864 0.24 1.288 0.192 0.896 0.344 1.792 0.512 2.696 0.424 2.272 0.776 4.56 1.048 6.88 0.112 0.928 0.232 1.848 0.312 2.776 0.024 0.224 0.056 0.44 0.072 0.664 0.272 2.936 0.432 5.888 0.432 8.888v7.528l42.616 7.52c3.248 0.576 5.808 3.08 6.456 6.312l4.528 22.632c1.136 5.664 7.704 8.296 12.432 4.984l67.216-47.056c1.76-1.232 2.952-3.12 3.304-5.24l6.768-40.624c0.424-2.552-0.408-5.144-2.232-6.976l-34.176-34.176c-1.824-1.824-4.424-2.656-6.976-2.232l-37.584 6.264c-3.712 0.616-7.344-1.432-8.744-4.92l-22.392-55.984c-0.088 0.016-0.176 0.024-0.264 0.04-17.312 2.6-33.728 7.88-48.872 15.336-0.784 0.392-1.592 0.744-2.368 1.144-2.864 1.464-5.64 3.064-8.408 4.688-1.576 0.928-3.144 1.864-4.688 2.848-2.32 1.464-4.608 2.984-6.856 4.56-2.064 1.456-4.064 2.976-6.056 4.52-1.728 1.336-3.48 2.64-5.152 4.04-3.672 3.08-7.264 6.264-10.664 9.648 0.032 8e-3 0.072 0.032 0.112 0.048z" fill="#E4D9B3"/>
<g fill="#73D0F4">
	<path d="m469.06 145.3c0.656 3.528 1.2 7.088 1.632 10.688-0.432-3.608-0.968-7.168-1.632-10.688z"/>
	<path d="m444.29 83.704c2.24 3.392 4.352 6.88 6.344 10.44-1.992-3.56-4.104-7.048-6.344-10.44z"/>
	<path d="m459.85 113.48c1.144 2.856 2.184 5.752 3.176 8.68-0.992-2.92-2.024-5.824-3.176-8.68z"/>
	<path d="m464.67 126.9c1.36 4.448 2.504 8.984 3.488 13.576-0.992-4.592-2.128-9.128-3.488-13.576z"/>
	<path d="m472 176c0-5.184-0.312-10.288-0.776-15.344 0.464 5.056 0.776 10.16 0.776 15.344z"/>
	<path d="m472 176c0 5.648-0.304 11.224-0.848 16.728 0.56-5.496 0.848-11.08 0.848-16.728z"/>
	<path d="m469.13 206.26c-0.152 0.832-0.224 1.696-0.384 2.52 0.168-0.824 0.232-1.688 0.384-2.52z"/>
	<path d="m453.95 100.54c1.096 2.176 2.176 4.368 3.176 6.6-1.008-2.232-2.08-4.424-3.176-6.6z"/>
	<path d="m459.58 239.25v-8e-3 8e-3z"/>
</g>
<g fill="#E4D9B3">
	<path d="m470.69 155.98c-0.432-3.6-0.976-7.16-1.632-10.688-0.296-1.608-0.56-3.224-0.904-4.808-0.992-4.592-2.136-9.128-3.488-13.576-0.496-1.608-1.104-3.16-1.64-4.744-0.992-2.928-2.032-5.832-3.176-8.68-0.864-2.136-1.776-4.248-2.72-6.344-1.008-2.232-2.08-4.416-3.176-6.6-1.08-2.144-2.136-4.312-3.304-6.4-1.992-3.56-4.104-7.048-6.344-10.44l-17.592 17.584c-1.72 1.72-2.56 4.128-2.296 6.544l7.456 67.072c0.08 0.728 0.064 1.472-0.064 2.2l-6.784 40.712c-0.608 3.64 1.352 7.216 4.744 8.672l29.808 12.776v-8e-3c3.96-9.736 7.056-19.92 9.168-30.464 0.168-0.832 0.232-1.688 0.384-2.52 0.824-4.456 1.56-8.952 2.016-13.528 0.544-5.512 0.848-11.088 0.848-16.736 0-5.184-0.312-10.288-0.776-15.344-0.144-1.568-0.336-3.12-0.528-4.68z"/>
	<path d="m370.03 227.05c-1.288-1.936-3.36-3.216-5.664-3.504l-50.504-6.312c-5.064-0.632-9.424 3.576-8.96 8.664l5.776 63.528c0.576 6.296 7.888 9.472 12.88 5.592l54.576-42.448c3.312-2.576 4.072-7.264 1.744-10.752l-9.848-14.768z"/>
</g>
<path d="m100.65 259.66c0.368 0.232 0.736 0.472 1.104 0.696 1.472 0.872 2.968 1.672 4.472 2.448 0.496 0.256 0.992 0.52 1.496 0.768 1.472 0.72 2.96 1.384 4.464 2.008 0.552 0.232 1.104 0.456 1.656 0.672 1.504 0.584 3.016 1.136 4.544 1.632 0.552 0.184 1.112 0.344 1.672 0.512 1.56 0.472 3.128 0.912 4.704 1.288 0.496 0.12 0.992 0.216 1.488 0.32 1.664 0.368 3.328 0.704 5.008 0.968 0.288 0.048 0.568 0.072 0.856 0.112 7.872 1.136 15.872 1.136 23.744 0 0.288-0.04 0.568-0.064 0.856-0.112 1.68-0.264 3.344-0.6 5.008-0.968 0.496-0.112 0.992-0.208 1.488-0.32 1.576-0.376 3.144-0.816 4.704-1.288 0.56-0.168 1.12-0.336 1.672-0.512 1.528-0.496 3.04-1.04 4.544-1.632 0.552-0.216 1.104-0.44 1.656-0.672 1.504-0.624 2.992-1.288 4.464-2.008 0.504-0.248 1-0.512 1.496-0.768 1.504-0.776 3.008-1.576 4.472-2.448 0.376-0.224 0.736-0.472 1.104-0.696 1.576-0.968 3.136-1.968 4.656-3.048-0.368 0.264-0.752 0.48-1.12 0.736 2.072-1.424 4.136-2.88 6.096-4.52 27.28-22.72 43.04-56.368 43.04-91.856 0-0.328-0.048-0.64-0.048-0.968h-23.952c-26.512 0-48-21.488-48-48l-4.824 1.072c-5.312 1.184-10.592 2.504-15.832 3.936-2.384 0.656-4.736 1.408-7.104 2.12-2.776 0.824-5.56 1.624-8.32 2.52-3.144 1.024-6.24 2.152-9.352 3.272-1.872 0.672-3.76 1.312-5.624 2.016-3.624 1.376-7.216 2.848-10.792 4.344-1.256 0.52-2.512 1.024-3.76 1.568-3.96 1.72-7.888 3.528-11.784 5.4-0.784 0.376-1.576 0.744-2.352 1.12-4.2 2.056-8.36 4.2-12.472 6.432-0.424 0.232-0.848 0.456-1.272 0.688-4.344 2.376-8.64 4.848-12.88 7.416-0.168 0.104-0.336 0.2-0.496 0.304-4.408 2.68-8.76 5.456-13.048 8.336 0.456 34.904 16.08 67.912 42.936 90.296 1.616 1.344 3.288 2.584 4.976 3.784 1.52 1.064 3.08 2.064 4.656 3.032z" fill="#fff"/>
<g fill="#73D0F4">
	<path d="m192 256.61c1.688-1.208 3.36-2.44 4.976-3.784-1.968 1.64-4.024 3.096-6.096 4.52 0.368-0.256 0.752-0.48 1.12-0.736z"/>
	<polygon points="192 312 192 352 192 472 280 472 264 320 192 296"/>
	<polygon points="95.998 312 95.998 296 23.998 320 7.998 472 95.998 472 95.998 352"/>
</g>
<g fill="#B3D5E4">
	<polygon points="192 352 192 312 144 336"/>
	<polygon points="95.998 352 144 336 95.998 312"/>
</g>
<path d="m144 336 48-24v-55.392c-1.52 1.088-3.08 2.08-4.656 3.048-0.368 0.232-0.736 0.472-1.104 0.696-1.472 0.872-2.96 1.672-4.472 2.448-0.496 0.256-0.992 0.52-1.496 0.768-1.472 0.72-2.96 1.384-4.464 2.008-0.552 0.232-1.104 0.456-1.656 0.672-1.504 0.584-3.016 1.136-4.544 1.632-0.552 0.184-1.112 0.344-1.672 0.512-1.56 0.472-3.128 0.912-4.704 1.288-0.496 0.12-0.992 0.216-1.488 0.32-1.664 0.368-3.328 0.704-5.008 0.968-0.288 0.04-0.568 0.072-0.856 0.112-7.88 1.136-15.872 1.136-23.744 0-0.288-0.04-0.568-0.064-0.856-0.112-1.68-0.264-3.344-0.6-5.008-0.968-0.496-0.112-0.992-0.208-1.488-0.32-1.584-0.376-3.144-0.816-4.704-1.288-0.56-0.168-1.12-0.336-1.672-0.512-1.528-0.496-3.04-1.04-4.544-1.632-0.552-0.216-1.104-0.44-1.656-0.672-1.504-0.624-2.992-1.288-4.464-2.008-0.504-0.248-0.992-0.512-1.496-0.768-1.512-0.776-3-1.576-4.472-2.448-0.376-0.224-0.736-0.472-1.104-0.696-1.576-0.968-3.136-1.968-4.656-3.048v55.392l47.984 24z" fill="#fff"/>
<g fill="#73D0F4">
	<path d="m131.27 270.97c-1.68-0.264-3.344-0.6-5.008-0.968 1.664 0.368 3.328 0.712 5.008 0.968z"/>
	<path d="m186.24 260.35c-1.472 0.872-2.968 1.672-4.472 2.448 1.504-0.776 3-1.576 4.472-2.448z"/>
	<path d="m161.73 270.01c-1.664 0.368-3.328 0.704-5.008 0.968 1.68-0.264 3.344-0.608 5.008-0.968z"/>
	<path d="m112.2 265.58c-1.504-0.624-2.992-1.288-4.464-2.008 1.464 0.72 2.952 1.384 4.464 2.008z"/>
	<path d="m167.93 268.39c-1.56 0.472-3.128 0.912-4.704 1.288 1.576-0.376 3.144-0.816 4.704-1.288z"/>
	<path d="m124.77 269.68c-1.576-0.376-3.144-0.816-4.704-1.288 1.56 0.472 3.128 0.912 4.704 1.288z"/>
	<path d="m106.24 262.8c-1.504-0.776-3.008-1.576-4.472-2.448 1.464 0.872 2.96 1.672 4.472 2.448z"/>
	<path d="m118.39 267.88c-1.528-0.496-3.04-1.04-4.544-1.632 1.504 0.584 3.016 1.136 4.544 1.632z"/>
	<path d="m174.14 266.25c-1.504 0.584-3.016 1.136-4.544 1.632 1.536-0.496 3.048-1.048 4.544-1.632z"/>
	<path d="m95.998 256.61c1.52 1.088 3.08 2.08 4.656 3.048-1.576-0.968-3.136-1.968-4.656-3.048z"/>
	<path d="m132.13 271.08c7.88 1.136 15.872 1.136 23.744 0-7.872 1.144-15.872 1.144-23.744 0z"/>
	<path d="m187.34 259.66c1.576-0.968 3.136-1.968 4.656-3.048-1.52 1.08-3.08 2.08-4.656 3.048z"/>
	<path d="m180.27 263.57c-1.472 0.72-2.96 1.384-4.464 2.008 1.504-0.624 2.992-1.288 4.464-2.008z"/>
</g>
<path d="m74.518 146.48c0.424-0.232 0.848-0.456 1.272-0.688 4.12-2.224 8.272-4.376 12.472-6.432 0.784-0.384 1.568-0.744 2.352-1.12 3.896-1.864 7.816-3.68 11.784-5.4 1.248-0.544 2.512-1.04 3.76-1.568 3.576-1.496 7.16-2.976 10.792-4.344 1.864-0.704 3.752-1.344 5.624-2.016 3.112-1.112 6.208-2.248 9.352-3.272 2.752-0.896 5.536-1.688 8.32-2.52 2.368-0.704 4.72-1.464 7.104-2.12 5.24-1.432 10.512-2.76 15.832-3.936l4.816-1.064c0 26.512 21.488 48 48 48h32v-8c0-3.224-0.192-6.4-0.48-9.552-0.088-0.936-0.208-1.856-0.312-2.784-0.272-2.312-0.624-4.608-1.048-6.872-0.168-0.904-0.32-1.808-0.512-2.704-0.64-2.968-1.368-5.904-2.256-8.768-0.152-0.504-0.352-0.984-0.52-1.488-0.776-2.376-1.632-4.712-2.568-7.008-0.416-1.024-0.864-2.032-1.312-3.032-0.8-1.8-1.664-3.576-2.56-5.32-0.512-0.984-1-1.984-1.536-2.96-1.344-2.408-2.768-4.768-4.288-7.056-0.656-0.984-1.376-1.912-2.064-2.872-1.008-1.408-2.032-2.8-3.104-4.152-0.72-0.904-1.464-1.776-2.208-2.656-0.184-0.224-0.368-0.448-0.552-0.664-0.96-1.112-1.952-2.184-2.96-3.256-1.032-1.096-2.04-2.2-3.12-3.248-1.32-1.288-2.704-2.504-4.088-3.72-0.504-0.448-0.984-0.928-1.504-1.36-0.384-0.32-0.792-0.608-1.184-0.928-0.904-0.744-1.84-1.456-2.768-2.168s-1.856-1.424-2.808-2.096c-1.384-0.992-2.8-1.944-4.24-2.864-0.032-0.024-0.064-0.04-0.096-0.064-0.912-0.584-1.856-1.136-2.784-1.688-1.368-0.816-2.736-1.64-4.144-2.392-0.128-0.072-0.256-0.152-0.384-0.224-1.8-0.952-3.656-1.824-5.52-2.672-0.384-0.176-0.744-0.376-1.128-0.544-12.84-5.68-27.008-8.888-41.952-8.888-57.44 0-104 46.56-104 104v16c6.864-4.904 13.952-9.448 21.136-13.808 0.168-0.104 0.328-0.2 0.496-0.304 4.248-2.568 8.536-5.04 12.888-7.408z" fill="#B3D5E4"/>
<g fill="#73D0F4">
	<path d="m234.89 101.51c0.536 0.968 1.024 1.968 1.536 2.952 0 0 0-8e-3 -8e-3 -8e-3 -0.504-0.984-0.992-1.976-1.528-2.944z"/>
	<path d="m216.6 77.608c1.072 1.048 2.088 2.152 3.112 3.248l-8e-3 -8e-3c-1.024-1.088-2.032-2.192-3.104-3.24z"/>
	<path d="m192.98 60.328c1.408 0.752 2.776 1.576 4.144 2.392l-8e-3 -8e-3c-1.368-0.816-2.728-1.632-4.136-2.384z"/>
	<path d="m223.23 84.776c0.744 0.88 1.496 1.752 2.208 2.656-0.72-0.904-1.464-1.776-2.208-2.656z"/>
	<path d="m200.01 64.472c1.44 0.92 2.848 1.872 4.24 2.864-1.392-0.992-2.8-1.944-4.24-2.864z"/>
	<path d="m239 109.79c0.448 1 0.888 2.008 1.312 3.032-0.424-1.024-0.872-2.024-1.312-3.032z"/>
	<path d="m228.55 91.6c0-8e-3 -8e-3 -8e-3 -8e-3 -8e-3 0.68 0.952 1.4 1.888 2.056 2.864v-8e-3c-0.648-0.976-1.368-1.904-2.048-2.848z"/>
	<path d="m211.01 72.528c-0.384-0.32-0.792-0.608-1.184-0.928 0.392 0.32 0.8 0.608 1.184 0.928z"/>
	<path d="m192.6 60.104c-1.8-0.952-3.656-1.824-5.52-2.672 1.864 0.848 3.72 1.72 5.52 2.672z"/>
	<path d="m242.87 119.84c0.16 0.496 0.36 0.976 0.512 1.48-0.152-0.504-0.352-0.984-0.512-1.48z"/>
	<path d="m186 56.904c-0.016-8e-3 -0.032-0.016-0.04-0.024 0.384 0.168 0.752 0.376 1.128 0.544-0.368-0.16-0.72-0.36-1.088-0.52z"/>
	<path d="m247.21 139.67c0-8e-3 -8e-3 -8e-3 0 0 0.112 0.92 0.232 1.848 0.312 2.776-0.088-0.936-0.208-1.856-0.312-2.776z"/>
	<path d="m222.67 84.112c0.192 0.216 0.368 0.448 0.552 0.664-0.184-0.216-0.36-0.448-0.552-0.664z"/>
	<path d="m245.64 130.1v0c0.192 0.888 0.344 1.8 0.512 2.704v-8e-3c-0.168-0.904-0.32-1.808-0.512-2.696z"/>
	<path d="m199.92 64.408c0.032 0.024 0.064 0.04 0.096 0.064-0.04-0.024-0.064-0.048-0.096-0.064z"/>
	<path d="m211.01 72.528c0.52 0.432 0.992 0.912 1.504 1.36-0.016-8e-3 -0.024-0.024-0.04-0.032-0.496-0.432-0.96-0.904-1.464-1.328z"/>
	<path d="m207.05 69.432c0.936 0.712 1.864 1.432 2.768 2.168-0.904-0.736-1.832-1.456-2.768-2.168z"/>
	<path d="m192.98 60.328c-0.128-0.072-0.256-0.152-0.384-0.224 0.128 0.072 0.256 0.152 0.384 0.224z"/>
	<path d="m186 56.904c0.368 0.16 0.72 0.36 1.088 0.528 1.864 0.848 3.712 1.72 5.52 2.672 0.128 0.072 0.256 0.152 0.384 0.224 1.408 0.752 2.768 1.568 4.136 2.384-3.592-2.144-7.28-4.104-11.128-5.808z"/>
	<path d="m247.21 139.67c0.112 0.928 0.232 1.848 0.312 2.776-0.088-0.936-0.208-1.856-0.312-2.776z"/>
	<path d="m228.55 91.6c0.68 0.952 1.4 1.872 2.048 2.848-0.648-0.976-1.368-1.896-2.048-2.848z"/>
	<path d="m216.6 77.608c1.072 1.048 2.08 2.152 3.112 3.24-1.032-1.088-2.04-2.192-3.112-3.24z"/>
	<path d="m245.64 130.1c0.192 0.888 0.344 1.8 0.512 2.696-0.168-0.904-0.32-1.808-0.512-2.696z"/>
	<path d="m239 109.79c0.448 1 0.888 2.008 1.304 3.024-0.416-1.016-0.864-2.016-1.304-3.024z"/>
	<path d="m242.87 119.84c0.16 0.496 0.36 0.976 0.512 1.48-0.152-0.504-0.352-0.984-0.512-1.48z"/>
	<path d="m199.92 64.408c0.032 0.024 0.064 0.04 0.096 0.064 1.44 0.92 2.848 1.872 4.232 2.864-1.424-1.016-2.864-1.992-4.328-2.928z"/>
	<path d="m234.89 101.51c0.536 0.96 1.024 1.96 1.528 2.944-0.504-0.984-0.992-1.976-1.528-2.944z"/>
	<path d="m222.67 84.112c0.192 0.216 0.368 0.448 0.552 0.664 0.744 0.88 1.488 1.752 2.208 2.656-0.896-1.128-1.816-2.232-2.76-3.32z"/>
	<path d="m207.06 69.44c0.928 0.712 1.856 1.424 2.768 2.168 0.384 0.32 0.8 0.6 1.184 0.928 0.504 0.424 0.968 0.888 1.464 1.328-1.76-1.544-3.568-3.008-5.416-4.424z"/>
	<path d="m122.57 124.91c-1.872 0.672-3.76 1.312-5.624 2.016 1.864-0.704 3.752-1.344 5.624-2.016z"/>
	<path d="m106.16 131.27c-1.256 0.528-2.512 1.024-3.76 1.568 1.248-0.536 2.512-1.04 3.76-1.568z"/>
	<path d="m75.79 145.79c-0.424 0.232-0.848 0.456-1.272 0.688 0.424-0.232 0.848-0.464 1.272-0.688z"/>
	<path d="m61.134 154.19c0.168-0.104 0.336-0.2 0.496-0.304-0.16 0.104-0.328 0.2-0.496 0.304z"/>
	<path d="m163.17 113.07c-5.312 1.184-10.592 2.504-15.832 3.936 5.248-1.432 10.52-2.76 15.832-3.936z"/>
	<path d="m90.614 138.24c-0.784 0.376-1.576 0.736-2.352 1.12 0.776-0.384 1.568-0.744 2.352-1.12z"/>
	<path d="m140.24 119.13c-2.776 0.824-5.568 1.624-8.32 2.52 2.76-0.896 5.544-1.696 8.32-2.52z"/>
</g>
<g fill="#B3D5E4">
	<polygon points="144 336 95.998 352 95.998 472 144 472 120 424"/>
	<polygon points="144 336 168 424 144 472 192 472 192 352"/>
</g>
<polygon points="144 336 120 424 144 472 168 424" fill="#73D0F4"/>
<path d="m479.36 161.54c-0.28-3.408-0.64-6.784-1.112-10.136-0.064-0.44-0.104-0.888-0.168-1.328-0.576-3.872-1.296-7.696-2.12-11.488-0.144-0.648-0.304-1.296-0.448-1.944-0.792-3.456-1.68-6.88-2.672-10.256-0.12-0.416-0.232-0.832-0.352-1.248-1.152-3.808-2.432-7.56-3.832-11.256-0.16-0.424-0.336-0.832-0.496-1.256-1.336-3.44-2.768-6.832-4.312-10.168-0.176-0.376-0.336-0.76-0.512-1.136-1.704-3.616-3.52-7.168-5.456-10.64-0.216-0.384-0.44-0.76-0.656-1.144-1.816-3.2-3.72-6.336-5.72-9.408-0.184-0.28-0.336-0.576-0.52-0.856-0.016-0.032-0.056-0.04-0.072-0.072-31.528-47.672-85.592-79.208-146.91-79.208-8.784 0-17.416 0.848-25.96 2.12h-8e-3c-17.592 2.608-34.52 7.84-50.368 15.536-0.992 0.48-2 0.912-2.976 1.408-2.792 1.424-5.52 2.976-8.24 4.552-1.904 1.096-3.792 2.216-5.664 3.384-2.288 1.44-4.536 2.92-6.76 4.472-2.384 1.656-4.704 3.408-7.016 5.192-1.72 1.328-3.464 2.616-5.136 4.016-2.64 2.192-5.184 4.536-7.72 6.896-12.488-4.824-25.992-7.576-40.152-7.576-61.76 0-112 50.24-112 112v16c0 3 1.672 5.744 4.336 7.12 1.16 0.592 2.416 0.88 3.664 0.88 0.328 0 0.648-0.112 0.976-0.152 3.776 32.336 19.712 62.104 44.92 83.12 0.68 0.568 1.408 1.056 2.104 1.6v29.672l-66.528 22.176c-2.976 0.992-5.096 3.624-5.424 6.752l-16 152c-0.24 2.248 0.496 4.504 2.008 6.184s3.68 2.648 5.944 2.648h272c2.264 0 4.432-0.96 5.944-2.648s2.248-3.936 2.008-6.184l-12.808-121.69c9.768 1.656 19.432 2.52 28.856 2.52 85.464 0 156.86-61.248 172.7-142.14 0.032-0.144 0.048-0.296 0.08-0.44 1.032-5.328 1.84-10.736 2.368-16.216 0.024-0.264 0.032-0.528 0.064-0.784 0.504-5.416 0.792-10.88 0.792-16.416 0-3.88-0.168-7.72-0.416-11.536-0.064-0.976-0.144-1.952-0.224-2.92zm-16.12 29.408c-0.168 1.808-0.456 3.6-0.688 5.4-0.392 3.04-0.824 6.064-1.384 9.048-0.416 2.232-0.904 4.448-1.424 6.656-0.568 2.44-1.192 4.856-1.872 7.256-0.688 2.416-1.392 4.832-2.192 7.216-0.224 0.68-0.504 1.344-0.744 2.016l-22.024-9.44 6.8-40.752c0.232-1.48 0.272-2.96 0.112-4.352l-7.456-67.08 10.344-10.344c0.32 0.56 0.688 1.088 1 1.648 0.72 1.288 1.4 2.608 2.08 3.912 1.592 3.04 3.088 6.136 4.48 9.288 0.472 1.064 0.992 2.112 1.44 3.192 1.664 4 3.144 8.096 4.496 12.248 0.416 1.288 0.792 2.584 1.176 3.88 1.088 3.672 2.056 7.392 2.88 11.168 0.176 0.816 0.4 1.632 0.568 2.448 0.904 4.488 1.576 9.048 2.088 13.664 0.128 1.16 0.24 2.32 0.344 3.488 0.432 4.792 0.736 9.608 0.736 14.488 0 5.048-0.296 10.024-0.76 14.952zm-189.06-171.96 20 50.008c2.784 6.928 10.16 11.104 17.488 9.832l37.592-6.256 34.168 34.168-6.768 40.624-67.216 47.056-4.528-22.632c-1.304-6.504-6.368-11.456-12.904-12.616l-36.008-6.352v-0.824c0-3.392-0.208-6.744-0.512-10.08-0.08-0.896-0.168-1.784-0.272-2.672-0.368-3.184-0.816-6.352-1.448-9.472-0.112-0.544-0.264-1.072-0.384-1.608-0.576-2.624-1.248-5.216-2.008-7.776-0.304-1.04-0.624-2.08-0.96-3.112-0.912-2.784-1.896-5.544-3.024-8.24-0.28-0.672-0.6-1.328-0.896-1.992-1.04-2.36-2.16-4.68-3.36-6.96-0.456-0.872-0.92-1.736-1.4-2.6-1.52-2.712-3.104-5.384-4.848-7.968-0.104-0.152-0.224-0.304-0.328-0.456-1.728-2.536-3.584-4.976-5.512-7.368-0.456-0.56-0.912-1.12-1.384-1.68-4.16-4.944-8.744-9.544-13.736-13.728-0.56-0.472-1.12-0.928-1.688-1.384-2.216-1.792-4.496-3.504-6.856-5.128-0.368-0.256-0.712-0.528-1.08-0.776-2.136-1.432-4.32-2.8-6.568-4.096 0.56-0.488 1.16-0.92 1.728-1.4 2.496-2.104 5.048-4.128 7.656-6.064 1.656-1.232 3.344-2.4 5.048-3.56 1.592-1.08 3.192-2.12 4.808-3.144 2.04-1.288 4.08-2.584 6.168-3.768 0.576-0.328 1.176-0.616 1.76-0.944 14.68-8.112 30.56-13.888 47.272-17.032zm-226.18 133.01c0-52.936 43.064-96 96-96 16.28 0 31.608 4.104 45.056 11.28 1 0.536 1.952 1.136 2.928 1.696 1.464 0.848 2.92 1.712 4.336 2.64 0.936 0.608 1.848 1.24 2.752 1.872 1.52 1.072 3.008 2.184 4.456 3.336 0.688 0.552 1.4 1.08 2.072 1.648 2.072 1.744 4.088 3.552 6.008 5.456 0.384 0.376 0.736 0.792 1.104 1.176 1.552 1.6 3.056 3.248 4.496 4.944 0.592 0.696 1.168 1.416 1.736 2.128 1.224 1.528 2.392 3.104 3.52 4.712 0.496 0.712 1.024 1.408 1.504 2.128 1.448 2.176 2.816 4.416 4.088 6.72 0.44 0.8 0.832 1.632 1.248 2.448 0.84 1.624 1.64 3.272 2.392 4.952 0.464 1.04 0.904 2.08 1.328 3.136 0.68 1.68 1.296 3.392 1.88 5.12 0.312 0.912 0.648 1.816 0.936 2.736 0.768 2.52 1.424 5.088 1.984 7.696 0.192 0.896 0.336 1.808 0.504 2.712 0.368 2 0.688 4.024 0.928 6.064 0.104 0.896 0.216 1.792 0.296 2.704 0.264 2.872 0.448 5.76 0.448 8.696h-24c-22.056 0-40-17.944-40-40 0-2.432-1.104-4.72-2.992-6.24-1.896-1.512-4.36-2.088-6.744-1.568l-4.824 1.072c-5.216 1.16-10.384 2.44-15.512 3.832-0.728 0.2-1.44 0.432-2.168 0.632-4.472 1.24-8.912 2.544-13.312 3.952-0.304 0.096-0.592 0.208-0.896 0.304-28.784 9.328-56.088 22.312-81.56 38.88v-0.864h8e-3zm8.224 14.728c11.928-7.784 24.248-14.744 36.928-20.88 0.344-0.168 0.688-0.336 1.04-0.504 3.776-1.816 7.592-3.536 11.432-5.2 0.888-0.384 1.784-0.76 2.672-1.136 3.44-1.456 6.904-2.856 10.392-4.192 1.464-0.56 2.936-1.08 4.4-1.616 3.048-1.12 6.096-2.224 9.176-3.248 2.248-0.744 4.52-1.424 6.784-2.128 2.424-0.752 4.84-1.528 7.28-2.224 4.808-1.36 9.648-2.64 14.536-3.792 4.64 26.216 27.608 46.192 55.136 46.192h15.616c-0.056 0.944-0.072 1.904-0.16 2.84-0.16 1.76-0.36 3.512-0.6 5.264-0.296 2.168-0.656 4.32-1.072 6.464-0.344 1.736-0.712 3.464-1.136 5.176-0.52 2.096-1.112 4.168-1.752 6.232-0.52 1.68-1.048 3.36-1.648 5.016-0.736 2.032-1.568 4.024-2.424 6.008-0.688 1.6-1.36 3.216-2.128 4.784-0.96 1.968-2.032 3.88-3.104 5.784-0.84 1.496-1.64 3-2.552 4.456-1.2 1.92-2.536 3.768-3.856 5.616-0.952 1.336-1.856 2.712-2.864 4.008-1.52 1.944-3.192 3.784-4.856 5.632-0.976 1.088-1.88 2.232-2.904 3.288-2.432 2.512-5.032 4.888-7.72 7.184-0.344 0.296-0.648 0.624-0.992 0.92-0.088 0.072-0.176 0.128-0.264 0.2-1.584 1.296-3.232 2.472-4.888 3.616-2.928 2.048-5.96 3.88-9.088 5.464-0.216 0.112-0.432 0.232-0.656 0.336-3.28 1.616-6.648 2.968-10.08 4.072-0.272 0.088-0.544 0.168-0.816 0.248-3.472 1.072-7 1.912-10.568 2.464-0.12 0.016-0.248 0.032-0.376 0.048-7.376 1.104-14.88 1.104-22.248 0-0.112-0.016-0.224-0.024-0.336-0.04-3.584-0.552-7.128-1.4-10.616-2.472-0.256-0.08-0.512-0.152-0.76-0.232-3.448-1.104-6.832-2.464-10.128-4.088-0.2-0.096-0.4-0.208-0.608-0.312-3.36-1.696-6.64-3.632-9.776-5.872h-8e-3c-1.528-1.088-3.04-2.208-4.496-3.416-23.92-19.952-38.312-48.888-39.912-79.96zm103.26 256.43-15.48 30.952-15.48-30.952 15.48-56.752 15.48 56.752zm24.52-82.264-19.144-6.376 19.144-9.576v15.952zm-80 0v-15.952l19.144 9.576-19.144 6.376zm19.176-63.376c0.36 0.088 0.72 0.152 1.08 0.232 2.936 0.656 5.888 1.16 8.864 1.52 0.328 0.04 0.656 0.088 0.984 0.128 3.288 0.36 6.584 0.608 9.888 0.608s6.6-0.248 9.888-0.608c0.328-0.04 0.656-0.088 0.984-0.128 2.976-0.36 5.928-0.864 8.864-1.52 0.36-0.08 0.72-0.152 1.08-0.232 6.424-1.512 12.712-3.728 18.752-6.664 0.136-0.064 0.288-0.112 0.424-0.176v36.376l-40 20-40-20v-36.376c0.136 0.072 0.288 0.112 0.424 0.176 6.064 2.936 12.344 5.152 18.768 6.664zm-91.76 48.44 56.584-18.856v156.9h-71.12l14.536-138.04zm72.584 31.808 28.352-9.448-20.072 73.584c-0.512 1.896-0.32 3.92 0.56 5.68l18.216 36.416h-27.056v-106.23zm52.944 106.23 18.208-36.424c0.88-1.76 1.08-3.784 0.56-5.68l-20.072-73.584 28.36 9.456v106.23h-27.056zm43.056 0v-156.9l56.584 18.856 14.536 138.04h-71.12zm104-128c-9.936 0-20.2-1.04-30.592-3.096l-1.456-13.744c-0.328-3.128-2.448-5.76-5.424-6.752l-66.528-22.176v-29.6c0.712-0.536 1.408-1.096 2.104-1.664 3.544-2.952 6.88-6.08 10.048-9.352 1.024-1.056 1.912-2.2 2.896-3.288 2.064-2.28 4.128-4.56 6.008-6.976 1.064-1.368 2-2.816 3.008-4.224 1.616-2.256 3.24-4.496 4.704-6.848 0.976-1.568 1.824-3.2 2.728-4.808 1.296-2.304 2.592-4.6 3.744-6.968 0.832-1.72 1.552-3.488 2.304-5.24 1.016-2.36 2.016-4.728 2.88-7.144 0.664-1.848 1.224-3.728 1.808-5.608 0.744-2.408 1.448-4.816 2.048-7.272 0.48-1.968 0.872-3.944 1.256-5.944 0.472-2.432 0.896-4.872 1.224-7.344 0.272-2.064 0.488-4.136 0.664-6.216 0.104-1.248 0.328-2.472 0.392-3.728h0.184c0.328 0 0.608-0.144 0.92-0.184l40.304 7.112 4.528 22.632c1.064 5.32 4.704 9.696 9.736 11.72 1.232 0.488 2.512 0.768 3.792 0.944-2.032 0.76-3.928 1.896-5.544 3.448-3.496 3.384-5.248 8.104-4.816 12.952l5.776 63.528c0.536 5.832 4.2 10.896 9.576 13.224 2.04 0.88 4.208 1.32 6.36 1.32 3.504 0 6.968-1.152 9.832-3.376l54.576-42.456c6.584-5.128 8.12-14.568 3.488-21.504l-9.832-14.76c-2.576-3.872-6.712-6.432-11.336-7.008l-50.36-6.296c1.256-0.472 2.496-1 3.616-1.784l67.208-47.048c3.496-2.44 5.896-6.248 6.616-10.488l6.768-40.608c0.856-5.088-0.816-10.304-4.472-13.96l-34.168-34.168c-3.656-3.648-8.864-5.328-13.944-4.472l-37.584 6.28-18.584-46.456c4.48-0.376 9-0.6 13.544-0.6 53.464 0 100.76 26.456 129.83 66.856l-12.768 12.768c-3.456 3.456-5.128 8.216-4.592 13.08l7.464 67.08-6.792 40.72c-1.208 7.296 2.696 14.424 9.488 17.328l22.296 9.552c-25.504 54.6-80.792 92.616-144.93 92.616zm8.848-110.83 50.52 6.312 9.84 14.768-54.576 42.448-5.784-63.528z" fill="#23374E"/>
</svg>
