<?xml version="1.0" encoding="UTF-8"?>
<svg viewBox="0 0 493.05 315.44" xmlns="http://www.w3.org/2000/svg">
<defs>
<style>.cls-1 {
        fill: #e5e6e7;
        opacity: 0.4;
      }
      .cls-2, .cls-39 {
        fill: #ffcfae;
      }
      .cls-3 {
        fill: #05496b;
      }
      .cls-4, .cls-5 {
        fill: #594a42;
      }
      .cls-5 {
        opacity: 0.3;
      }
      .cls-6 {
        fill: #2e2b36;
      }
      .cls-7 {
        fill: #17141d;
      }
      .cls-41, .cls-8 {
        fill: #a6a8ab;
      }
      .cls-9 {
        fill: #808184;
      }
      .cls-10 {
        fill: #3c2415;
      }
      .cls-11 {
        fill: #ffb07b;
      }
      .cls-12 {
        fill: #fa725c;
      }
      .cls-13 {
        fill: #ffbf90;
      }
      .cls-13, .cls-16, .cls-29, .cls-31, .cls-36, .cls-39, .cls-40, .cls-41 {
        opacity: 0.5;
      }
      .cls-14 {
        fill: #ffb380;
      }
      .cls-15 {
        fill: #ffc200;
      }
      .cls-16, .cls-37 {
        fill: #faaf40;
      }
      .cls-17 {
        fill: #bbbdbf;
      }
      .cls-18, .cls-40 {
        fill: #d0d2d3;
      }
      .cls-19, .cls-36 {
        fill: #04507d;
      }
      .cls-20 {
        fill: #f05a29;
      }
      .cls-21 {
        fill: #c1b49a;
      }
      .cls-22 {
        fill: #fff;
      }
      .cls-23 {
        fill: #382c27;
      }
      .cls-24 {
        fill: #8b2fea;
      }
      .cls-25 {
        fill: #f9f7e9;
      }
      .cls-26 {
        fill: #1a8e8e;
      }
      .cls-27 {
        fill: #bd1e2d;
      }
      .cls-28, .cls-29 {
        fill: #726658;
      }
      .cls-30 {
        fill: #414042;
      }
      .cls-31 {
        fill: #23afb7;
      }
      .cls-32 {
        fill: #352826;
      }
      .cls-33 {
        fill: #e2e7ed;
      }
      .cls-34 {
        fill: #4c3a36;
      }
      .cls-35 {
        fill: #83e5e5;
      }
      .cls-38 {
        fill: #5b4a48;
      }</style>
</defs>
<g transform="translate(1656.2 686.81)" data-name="Group 683">
<path class="cls-4" transform="translate(-1754 -1413)" d="m312.13 917.73a122.29 122.29 0 0 1 49.18 18.47s7 4.36 12-2 5.14-10.83 4.84-13.7-6.16-15.17-19.05-19.2c-4.94-1.3-12.75-0.53-18.49-0.08s-28.88-2.52-38.11-6.22c-7-2.82-32.73-3.87-44.6-4.21a9.32 9.32 0 0 0-8.68 5.3l-0.66 1.4 6 13.2s28.44 2.88 57.57 7.04z" data-name="Path 634"/>
<path class="cls-5" transform="translate(-1754 -1413)" d="M378.16,921.09h0v-.47a.339.339,0,0,1,0-.1.889.889,0,0,0-.07-.4.362.362,0,0,1,0-.1,1.852,1.852,0,0,0-.13-.47h0c-.06-.19-.13-.39-.21-.61v-.07c-1.61-4.42-7.48-14-18.6-17.52h0a30.765,30.765,0,0,0-7.72-.72H350.2c-.82,0-1.65.06-2.47.1-2.48.14-4.92.35-7.07.52h0a5.985,5.985,0,0,1-.62,0h-4.99l-.88-.07h-.28l-1.07-.1h-.17c-3.51-.34-7.68-.87-11.86-1.54h0c-7-1.13-14-2.65-18.2-4.33,0,0,8,7.88,19.21,9.35h0s26,4.92,37.35,5.52,15.06,8.18,14.56,11.8a31.225,31.225,0,0,1-2.6,4.24c-4.75,6.53-11.9,2.41-11.9,2.41a122.271,122.271,0,0,0-49.77-16.81c-25.9-2.81-51.26-4.64-56.7-5l1.91,4.2s28.47,2.88,57.57,7a122.288,122.288,0,0,1,49.18,18.47s7,4.36,12-2a23.81,23.81,0,0,0,4.35-8h0a14.3,14.3,0,0,0,.41-5.3Z" data-name="Path 635"/>
<circle class="cls-6" transform="translate(-1306.3 -450.85)" cx="39.74" cy="39.74" r="39.74" data-name="Ellipse 62"/>
<circle class="cls-7" transform="translate(-1295.2 -439.75)" cx="28.64" cy="28.64" r="28.64" data-name="Ellipse 63"/>
<circle class="cls-8" transform="translate(-1293 -394.65) rotate(-76.79)" cx="22.03" cy="22.03" r="22.03" data-name="Ellipse 64"/>
<circle class="cls-9" transform="translate(-1280.2 -424.82)" cx="13.71" cy="13.71" r="13.71" data-name="Ellipse 65"/>
<path class="cls-2" transform="translate(-1754 -1413)" d="M332.17,747.07v36a20.72,20.72,0,0,0,1.47,7.66h0c-.37,4.62-5.56,15.57-5.56,15.57s17.69,10.67,17.69,4.46c0-4.57,1.34-6.78,2-7.64a20.466,20.466,0,0,0,5,.62H356A17.81,17.81,0,0,0,373.76,786V747.07Z" data-name="Path 636"/>
<path class="cls-10" transform="translate(-1754 -1413)" d="M377.36,753.35a5.44,5.44,0,0,0,4.31,2.63s-6.48,3.56-9.57,0c0,0-3.72,4.49-9,0a9.61,9.61,0,0,1-6.23,2c-4.07,0-3.91-2.31-3.91-2.31s-.74,7.6-6.2,9.07.47,16.66.47,16.66-.76,2.16-4.26,2.16a5.84,5.84,0,0,1-4.92-2.16V764.73s.7-12.7,12.31-12.94,26.05,0,26.05,0Z" data-name="Path 637"/>
<path class="cls-11" transform="translate(-1754 -1413)" d="m373.76 773.79s5.89 7.13 5.27 9.45-5.27 2-5.27 2z" data-name="Path 638"/>
<path class="cls-10" transform="translate(-1754 -1413)" d="m365.78 768.41a1.72 1.72 0 0 0-1.71 1.71v4.56a1.71 1.71 0 0 0 3.42 0v-4.56a1.71 1.71 0 0 0-1.71-1.71z" data-name="Path 639"/>
<path class="cls-12" transform="translate(-1754 -1413)" d="M366.56,793.83H363a5.52,5.52,0,0,1-5.52-5.52.64.64,0,0,1,.64-.63.63.63,0,0,1,.63.63,4.26,4.26,0,0,0,4.25,4.25h3.6a.64.64,0,1,1,0,1.27Z" data-name="Path 640"/>
<path class="cls-10" transform="translate(-1754 -1419)" d="m370.39 770.73h-11.27v-2.32l11.27-1.4z" data-name="Path 641"/>
<path class="cls-13" transform="translate(-1754 -1413)" d="m332.17 783.09a20.72 20.72 0 0 0 1.47 7.66 22.128 22.128 0 0 1-1.12 4.68s6.29 0 8.53-7.13 1.91-14.6 1.48-19.89 0.64-13 11.59-13h19.64v-8.29h-41.59z" data-name="Path 642"/>
<path class="cls-14" transform="translate(-1754 -1413)" d="M418.86,852.56a30.361,30.361,0,0,0-4.42-7.85,2.1,2.1,0,0,0-1.8-.8l-10.7.75h0l-37,2.71-18-30.77a10.869,10.869,0,0,0-.75-1.07,8.63,8.63,0,0,0-12.47-1,8.8,8.8,0,0,0-.8,12.08l24.26,29.92.44.55a5.25,5.25,0,0,0,4.91,1.87l40-6.53h0s4.73.88,5.21-.37,3.38-1,3.51.81-2.8,2.23-2.68,4.05c.35,4.92,5.89,4,7,2.67S419.74,854.61,418.86,852.56Z" data-name="Path 643"/>
<path class="cls-15" transform="translate(-1754 -1413)" d="m170.29 826.33h64.07a9.23 9.23 0 0 1 9.23 9.23v73.3h-82.53v-73.3a9.23 9.23 0 0 1 9.23-9.23z" data-name="Path 644"/>
<path class="cls-16" transform="translate(-1754 -1413)" d="M234.51,826.33h-.27v44.08A27.59,27.59,0,0,1,206.65,898H161.06v10.86h82.53V835.42a9.09,9.09,0,0,0-9.08-9.09Z" data-name="Path 645"/>
<path class="cls-17" transform="translate(-1754 -1413)" d="M425.64,846.31a1,1,0,0,1-.77-.84l-2.14-18.71a1,1,0,0,1,1.9-.22l2.14,18.72a1,1,0,0,1-.85,1.06,1.31,1.31,0,0,1-.28-.01Z" data-name="Path 646"/>
<path class="cls-18" transform="translate(-1754 -1413)" d="m423 809.19a1.2 1.2 0 0 0-2 0.46c-1.39 4.38-4.69 15.21-4.09 18.23a1.92 1.92 0 0 0 2.48 1.46c3.19-1.06 9.2-3.59 10-7.76s-3.92-9.83-6.39-12.39z" data-name="Path 647"/>
<path class="cls-18" transform="translate(-1754 -1413)" d="m426.81 813.71a8.34 8.34 0 0 1 0.94 5c-0.78 4.17-6.8 6.7-10 7.76a2 2 0 0 1-0.83 0.08 5.908 5.908 0 0 0 0.05 1.38 1.91 1.91 0 0 0 2.48 1.45c3.18-1.05 9.2-3.58 10-7.75 0.47-2.5-0.92-5.41-2.64-7.92z" data-name="Path 648"/>
<path class="cls-19" transform="translate(-1754 -1413)" d="m365.45 838s-13-18.91-15.86-23.16-10.8-8.43-16.14-4.75-6.31 10.36-2.11 17 16 23 16 23z" data-name="Path 649"/>
<path class="cls-20" transform="translate(-1754 -1413)" d="M395.22,972.25a9.59,9.59,0,0,0,11.53-.27s.73,4.66,8,4.48,8.86,2.54,8.08,6.63l-.45,2.29L393.74,984Z" data-name="Path 650"/>
<path class="cls-21" transform="translate(-1754 -1419)" d="M393.74,989.96l-.24,3.15,28.89,1.46.03-3.19Z" data-name="Path 651"/>
<path class="cls-22" transform="translate(-1754 -1413)" d="M400.72,984.3c.83-6.56-6.23-6.27-6.23-6.27h0l-.75,5.93,7,.34Z" data-name="Path 652"/>
<path class="cls-23" transform="translate(-1754 -1413)" d="m338.5 1003.2c-8-1.81-15.09-16.58-15.09-16.58s-33.47-8.66-63.27-16.7l0.78 35.19 43.15 14c0.63 0.21 14.66-0.85 20.82-5a12.2 12.2 0 0 1 11.91-1.17c4.25 1.92 13.28 1.17 13.28 1.17-3.93 0.14-11.58-10.91-11.58-10.91z" data-name="Path 653"/>
<circle class="cls-6" transform="translate(-1540.2 -450.85)" cx="39.74" cy="39.74" r="39.74" data-name="Ellipse 66"/>
<circle class="cls-7" transform="translate(-1529.1 -439.75)" cx="28.64" cy="28.64" r="28.64" data-name="Ellipse 67"/>
<circle class="cls-8" transform="translate(-1525.7 -392.87) rotate(-80.82)" cx="22.03" cy="22.03" r="22.03" data-name="Ellipse 68"/>
<circle class="cls-9" transform="translate(-1514.2 -424.82)" cx="13.71" cy="13.71" r="13.71" data-name="Ellipse 69"/>
<path class="cls-8" transform="translate(-1754 -1413)" d="M300,980.48s-12.08,11.32-3.95,24.07c6,9.56,20.88,7,23.59,2.07,0,0,4.23-.08,5.26,2s3.59-3,2.63-4.62-4.14-9.48-4.14-9.48h-2.07s-1.12-7.41-8.37-8.61l.31-1.95Z" data-name="Path 654"/>
<path class="cls-4" transform="translate(-1754 -1413)" d="m338 1009.3s-0.95 7.33-7.49 8.29-27.73 1.51-27.73 1.51-12.52 0.08-14.59 0.8-12.67 2.31-18.17 0.48-37.33-12.25-39.13-14.37-4.68-6.17-4.36-9-3.4-3.93-3.4-3.93l1.06-3.61s3.28 0.51 4-0.79 4-8.56 15.88-5.48 37.29 11.26 41.65 14.56 5.1 5.42 6.27 8.5 8 10 14.35 10.31 20.72-0.91 22.58-1.17 6.11-2.92 6.21-6.22c-0.04-0.04 0.81-1.53 2.87 0.12z" data-name="Path 655"/>
<path class="cls-18" transform="translate(-1754 -1413)" d="m317.14 997a7.55 7.55 0 1 1-7.55-7.54 7.55 7.55 0 0 1 7.55 7.54z" data-name="Path 656"/>
<path class="cls-24" transform="translate(-1754 -1413)" d="M427.71,839.25l-5.14-3.85a.71.71,0,0,0-1,.18l-2.84,4.35A7.58,7.58,0,0,0,417.5,844s-11.15,10.2-12.59,11.63,4.46,13.23,5.58,17.69,1.59,6.22,7.17,3.67,10.2-5.42,11-5.82a3.08,3.08,0,0,0,1.28-2.71c.37-2.1,7.49-2.31,12.11-3.9L448.59,845Z" data-name="Path 657"/>
<path class="cls-24" transform="translate(-1754 -1413)" d="m480.51 935.41c-1.36-3.47-12.32-29-34.63-52.64-4.28-4.87-9.87-10.48-12.45-13a2.07 2.07 0 0 0-2.83-0.06 13.278 13.278 0 0 1-1.94 1.54c-1.06 0.6-11.28 5.73-14.19 6.93a2.2 2.2 0 0 0-1.11 2.88c0.8 2 13.12 32 14.82 36.92s5.64 19.34-1.27 34.54-6.62 19.63-17.38 24c-7 2.86-16.28 1.15-23.45-0.15-8.09-1.45-18.41-3.18-24.23-9.47-3.61-3.89-6.62-8.46-6.78-13.9-0.18-6.19 2.87-12.05 6.33-17a122.37 122.37 0 0 0-49.26-18.28c-29.12-4-57.59-6.8-57.59-6.8s-36.93 32.08-41.71 38.49c-2.24 3-2.39 4.45 2 7.32s108.61 29.86 108.61 29.86 7.12 14.77 15.09 16.58c0 0 7.65 11.05 11.58 10.94s24.65-5.63 28.16-5.73 26.88 0.31 32.83 0.74 16.64-4.89 23-11.27 24.89-34.11 28.5-44.15c3-8.09 10.53-12.93 13.35-14.5a4.83 4.83 0 0 1 1.92-0.59c1.32-0.11 3.61-0.67 2.63-3.2z" data-name="Path 658"/>
<path class="cls-25" transform="translate(-1754 -1413)" d="m442.79 843.4-4.91 22.26a34.3 34.3 0 0 0 4.17-1.06l6.54-19.6z" data-name="Path 659"/>
<path class="cls-17" transform="translate(-1754 -1413)" d="M421.06,845.26a1,1,0,0,1-.91-.68l-5.57-18a1,1,0,0,1,1.83-.57L422,844a1.036,1.036,0,0,1-.94,1.26Z" data-name="Path 660"/>
<path class="cls-26" transform="translate(-1754 -1413)" d="M420.15,844.58,418,846l-1.55,4.68s4.57,3.08,6.49,3.21l1.11-6.61L422,844Z" data-name="Path 661"/>
<path class="cls-25" transform="translate(-1754 -1413)" d="M450.18,909.5c-.32-1,.32-1.81,2.13-.86s6.48,6.22,9.35,10.58,8.34,13.39,7.91,14.4-6.05-.53-6.53-1.6S450.5,910.45,450.18,909.5Z" data-name="Path 662"/>
<path class="cls-24" transform="translate(-1754 -1413)" d="m474.4 940.13-5.95 4.73a24.561 24.561 0 0 0-5.82 8.82c-2.71 7.42-13.51 24.5-21.54 35.49s11.12-0.37 17.77-8.23 22.89-21.18 45.64-15c8.41 2.25 13.39 1.59 15.2-1.59-0.02 0.02-12.8-25.51-45.3-24.22z" data-name="Path 663"/>
<path class="cls-27" transform="translate(-1754 -1413)" d="m243.59 920.56-10.12 1.18a19.2 19.2 0 0 0-10.68 4.88l-10 9.14a3.59 3.59 0 0 0-1.09 3.35 3.58 3.58 0 0 0 3.05 2.85l4.66 0.62z" data-name="Path 664"/>
<path class="cls-28" transform="translate(-1754 -1413)" d="m229.89 990.76s-0.32 8.13 2.79 10.12 24.23 10 26.46 11.48a12.71 12.71 0 0 1 4.38 4c0.64 1.19 7.22 4.14 15.45-1.84s9.58-9 7.75-10.52-9.49-6.59-14.19-8.24-22.9-7.69-32.68-9c-3.74-0.54-10.34-1.28-9.96 4z" data-name="Path 665"/>
<path class="cls-29" transform="translate(-1754 -1413)" d="m286.72 1004-0.79-0.61a39.577 39.577 0 0 1-7 6c-8.23 6-14.81 3-15.45 1.83a12.8 12.8 0 0 0-4.38-4c-2.23-1.44-23.35-9.48-26.46-11.48-1.74-1.11-2.4-4.15-2.65-6.61a4.669 4.669 0 0 0-0.14 1.59s-0.32 8.13 2.79 10.12 24.23 10 26.46 11.48a12.71 12.71 0 0 1 4.38 4c0.64 1.19 7.22 4.14 15.45-1.84s9.62-8.97 7.79-10.48z" data-name="Path 666"/>
<path class="cls-30" transform="translate(-1754 -1413)" d="m214.8 956.73s2.66 2.55 2.55 4.25-2.55 4.78-2.55 4.78l-3.5 1.81-11.59 20.62s3.62 2.55 8.82 0c0 0 2 0.95 5.28-4.89a61.138 61.138 0 0 1 6-8.93l11.19-5.21 14.73-3.16c-16.49-4.55-29.45-8.3-30.93-9.27z" data-name="Path 667"/>
<path class="cls-25" transform="translate(-1754 -1413)" d="m224.6 948.46c0.28-0.07 19.08-9.89 21.85-11s-1.77-3.39-4.4-2.85-17.29 8.65-19.76 11-1.44 3.72 2.31 2.85z" data-name="Path 668"/>
<path class="cls-18" transform="translate(-1754 -1413)" d="m411.6 809.27a1.2 1.2 0 0 0-1.89 0.83c-0.56 4.56-1.79 15.82-0.64 18.67a1.92 1.92 0 0 0 2.71 1c2.93-1.63 8.37-5.23 8.37-9.47s-5.66-8.97-8.55-11.03z" data-name="Path 669"/>
<path class="cls-18" transform="translate(-1754 -1413)" d="m416.17 813a8.41 8.41 0 0 1 1.85 4.71c0 4.24-5.45 7.84-8.38 9.47a1.811 1.811 0 0 1-0.8 0.24 6.51 6.51 0 0 0 0.31 1.34 1.92 1.92 0 0 0 2.71 1c2.93-1.63 8.37-5.23 8.37-9.47 0-2.53-1.9-5.13-4.06-7.29z" data-name="Path 670"/>
<path class="cls-4" transform="translate(-1754 -1413)" d="M401.64,999.9c6.38,1,16.34,1.2,22.72-4.38s19.1-19.92,25.09-31.46,10.29-27.1,10-30.11-11.64-23.39-15.15-30.09-10.84-15.3-13.71-20.08-.1-9.78.62-11.43a3.74,3.74,0,0,0,0-3,1.909,1.909,0,0,0-.59.36,13.282,13.282,0,0,1-1.94,1.54c-1.06.6-11.28,5.73-14.19,6.93a2.2,2.2,0,0,0-1.11,2.88c.8,2,13.12,32,14.82,36.92s5.64,19.34-1.27,34.54-6.62,19.63-17.38,24c-7,2.86-16.28,1.15-23.45-.15-5-.9-10.89-1.91-16-4.05-13.18,5.06-35.29,4.3-35.29,4.3-5.1,7.44-14.77,9.11-14.77,9.11h0l3.38.88L357,993.42S395.27,998.94,401.64,999.9Z" data-name="Path 671"/>
<path class="cls-28" transform="translate(-1754 -1413)" d="m459.43 934c-0.32-3-11.64-23.39-15.15-30.09s-10.84-15.3-13.71-20.08a9.45 9.45 0 0 1-1-7.11v0.1l-3.19 1.64a6.94 6.94 0 0 0-3.32 8.69c4 10.4 12 32 12.78 42.32 1.07 13.82-3.82 25.59-7.54 35.22s7.07 19.31 7.07 19.31c5.28-6.18 10.73-13.5 14.08-20 5.99-11.47 10.29-27 9.98-30z" data-name="Path 672"/>
<path class="cls-28" transform="translate(-1754 -1413)" d="m429.77 876z" data-name="Path 673"/>
<path class="cls-31" transform="translate(-1754 -1413)" d="m462.07 977.52c7.11-9 12.26-25.12 13.93-27.9 1.91-3.17 13.6-8 13.64-8a53.749 53.749 0 0 0-15.24-1.5l-5.95 4.73a24.559 24.559 0 0 0-5.82 8.82c-2.71 7.42-13.51 24.5-21.54 35.49a28.78 28.78 0 0 0 13.51-4.45c1.51-1.38 2.95-2.67 4.26-3.78a44.558 44.558 0 0 1 3.21-3.41z" data-name="Path 674"/>
<path class="cls-22" transform="translate(-1754 -1413)" d="M495.21,946.69a53.861,53.861,0,0,1,5.2,2.49,56.2,56.2,0,0,1,5,3,44.94,44.94,0,0,1,4.63,3.7,30.347,30.347,0,0,1,4,4.61,2.22,2.22,0,0,1-3.61,2.57l-.18-.3h0a27.2,27.2,0,0,0-2.77-4.49,41.337,41.337,0,0,0-3.67-4.08,53.089,53.089,0,0,0-4.22-3.67,50.94,50.94,0,0,0-4.62-3.23h0a.32.32,0,0,1-.11-.44A.35.35,0,0,1,495.21,946.69Z" data-name="Path 675"/>
<path class="cls-22" transform="translate(-1754 -1413)" d="M258,937.24a118.91,118.91,0,0,1,21.82-4.76,82.351,82.351,0,0,1,22.5.27,48.005,48.005,0,0,1,11.07,3,27.23,27.23,0,0,1,9.78,6.66,19.651,19.651,0,0,1,3.36,5.17,24.7,24.7,0,0,1,1.76,5.82,33.839,33.839,0,0,1-.16,11.92,2.512,2.512,0,0,1-4.94-.91v-.11h0a29.27,29.27,0,0,0,.65-10.2,17.49,17.49,0,0,0-3.68-9.11,23.591,23.591,0,0,0-8.19-6.14,44.635,44.635,0,0,0-10.2-3.33A80,80,0,0,0,280,934.21a117.442,117.442,0,0,0-21.81,3.64.31.31,0,0,1-.39-.22.33.33,0,0,1,.2-.39Z" data-name="Path 676"/>
<path class="cls-31" transform="translate(-1754 -1413)" d="m410.49 873.36c1.12 4.47 1.59 6.22 7.17 3.67s10.2-5.42 11-5.82a3.08 3.08 0 0 0 1.28-2.71c0.37-2.1 7.49-2.31 12.11-3.9l-9.88-2.22s-4.39-5.7-9.19-7.85-14.08-3.3-18.07 1.14c-1.43 1.44 4.46 13.23 5.58 17.69z" data-name="Path 677"/>
<path class="cls-32" transform="translate(-1754 -1413)" d="m414.27 858.21a4.49 4.49 0 1 1-1.312-3.181 4.5 4.5 0 0 1 1.312 3.181z" data-name="Path 678"/>
<path class="cls-33" transform="translate(-1754 -1413)" d="m426.38 864.33a1.33 1.33 0 1 1-1.33-1.33 1.33 1.33 0 0 1 1.33 1.33z" data-name="Path 679"/>
<path class="cls-33" transform="translate(-1754 -1413)" d="M424.4,863.17a16,16,0,0,1-1.64-1.36c-.24-.32.92-.61.82-1.44s-1.85-1.3-3.18-1.27c-.76,0-1.14.67-1.17,1.53a3.44,3.44,0,0,0,1.38,2.82c1.1.86,3,2.16,4.44,2.21Z" data-name="Path 680"/>
<path class="cls-34" transform="translate(-1754 -1413)" d="M408.69,855.28a3.3,3.3,0,0,0-1.7.48l-7.2,2v6.68l8.9-2.5a3.35,3.35,0,0,0,0-6.69Z" data-name="Path 681"/>
<path class="cls-31" transform="translate(-1754 -1413)" d="m359.76 938.47c0.53-0.84 1.08-1.66 1.64-2.46a122.37 122.37 0 0 0-49.26-18.28c-29.12-4-57.59-6.8-57.59-6.8l-2.07 1.8c11 1.14 49.16 5.18 62.21 7.09 28.41 6.34 40.92 15.09 45.07 18.65z" data-name="Path 682"/>
<path class="cls-31" transform="translate(-1754 -1413)" d="M253.27,932.77c1.14-.59,2.31-1.1,3.47-1.63s2.36-1,3.54-1.45c2.38-1,4.79-1.79,7.23-2.58a122.165,122.165,0,0,1,14.93-3.77,93.849,93.849,0,0,1,15.48-1.64h2l2,.06c1.32,0,2.64.15,4,.24a55.274,55.274,0,0,1,7.92,1.34c1.32.29,2.61.75,3.91,1.17.65.22,1.28.51,1.92.76a17.716,17.716,0,0,1,1.9.84l1.85,1,1.78,1.12c.29.2.6.37.88.59l.83.65c.55.44,1.15.86,1.63,1.33a42.232,42.232,0,0,1,5.5,6c.4.55.81,1.09,1.19,1.66l1.09,1.73,1,1.81c.31.6.58,1.23.87,1.85a32.2,32.2,0,0,1,2.5,15.82,34.258,34.258,0,0,1-1.61,7.69,30.158,30.158,0,0,1-3.27,7,41.439,41.439,0,0,0,1.75-14.73A32.15,32.15,0,0,0,333.55,946a36.641,36.641,0,0,0-9.06-10.64,6.453,6.453,0,0,0-.68-.52l-.67-.49-.68-.5c-.22-.17-.48-.29-.72-.44l-1.45-.87-1.54-.73a14,14,0,0,0-1.58-.69c-.54-.2-1.06-.44-1.61-.62-1.12-.34-2.21-.72-3.37-1a64.092,64.092,0,0,0-14.28-1.76,126.43,126.43,0,0,0-14.78.56c-5,.42-9.93,1.09-14.9,1.85S258.28,931.8,253.27,932.77Z" data-name="Path 683"/>
<path class="cls-5" transform="translate(-1754 -1413)" d="M411.5,987.1l-3.5-3.9a2.7,2.7,0,0,0-1.69-.89l-37.25-4.54a2.72,2.72,0,0,0-1.58.31c-8,4.21-21.88,3.16-26.8,2.62a2.72,2.72,0,0,0-2.48,1.1l-.06.09a2.68,2.68,0,0,0,1.77,4.25l67.78,10.49a2.7,2.7,0,0,0,3-2l1.35-5.07A2.72,2.72,0,0,0,411.5,987.1Z" data-name="Path 684"/>
<path class="cls-25" transform="translate(-1754 -1413)" d="m219.41 944.17a1.629 1.629 0 0 1-1.18-0.52 1.6 1.6 0 0 1 0.11-2.25l24.18-22a1.59 1.59 0 1 1 2.14 2.35l-24.18 22a1.61 1.61 0 0 1-1.07 0.42z" data-name="Path 685"/>
<path class="cls-18" transform="translate(-1754 -1413)" d="m284.72 923.11a2.56 2.56 0 0 1-2.55-2.55v-3.26a4.89 4.89 0 0 0-4.88-4.88h-110.29a2.55 2.55 0 1 1 0-5.1h110.29a10 10 0 0 1 10 10v3.26a2.56 2.56 0 0 1-2.57 2.53z" data-name="Path 686"/>
<path class="cls-2" transform="translate(-1754 -1419)" d="M387.14,976.58l-1.28,11.07,8.69.48,1.72-10.76Z" data-name="Path 687"/>
<path class="cls-24" transform="translate(-1754 -1413)" d="m338.21 779.42v-15.2a12.73 12.73 0 0 1 12.73-12.73h28.87a36 36 0 1 0-54.33 40.66 12.73 12.73 0 0 0 12.73-12.73z" data-name="Path 688"/>
<path class="cls-31" transform="translate(-1754 -1413)" d="m348.33 746.53c-7.67 0-13.89 5.91-13.89 13.2v15.74c0 7.14-6 12.94-13.4 13.18a35.775 35.775 0 0 0 4.44 3.5 12.73 12.73 0 0 0 12.73-12.73v-15.2a12.73 12.73 0 0 1 12.73-12.73h28.87a35.993 35.993 0 0 0-2-5z" data-name="Path 689"/>
<path class="cls-35" transform="translate(-1754 -1413)" d="M325.48,794a1.86,1.86,0,1,1,0-3.72,10.88,10.88,0,0,0,10.87-10.87v-15.2a14.61,14.61,0,0,1,14.59-14.59h28.87a1.86,1.86,0,0,1,0,3.72H350.94a10.88,10.88,0,0,0-10.87,10.87v15.2A14.61,14.61,0,0,1,325.48,794Z" data-name="Path 690"/>
<path class="cls-19" transform="translate(-1754 -1413)" d="M329,773a4.61,4.61,0,1,1-4.61-4.61A4.61,4.61,0,0,1,329,773Z" data-name="Path 691"/>
<path class="cls-35" transform="translate(-1754 -1413)" d="m326.52 773a2.17 2.17 0 1 1-2.17-2.17 2.17 2.17 0 0 1 2.17 2.17z" data-name="Path 692"/>
<path class="cls-35" transform="translate(-1754 -1413)" d="m336.51 751.69a2.17 2.17 0 1 1-2.17-2.17 2.17 2.17 0 0 1 2.17 2.17z" data-name="Path 693"/>
<path class="cls-19" transform="translate(-1754 -1413)" d="M317.88,879.37S316,891,317.15,894.91s5,9.72,18.11,9.34c9.47-.27,33.79,3.35,46.48,5.37a9,9,0,0,1,7.53,9.35c-.67,11.82-3.59,42.9-4.07,54.55l14.45,1.5s8.91-54.7,9.19-60.23c.55-10.78-5.52-23.24-40.1-29.72-12.71-2.49-10.69-5.7-10.69-5.7Z" data-name="Path 694"/>
<path class="cls-20" transform="translate(-1754 -1413)" d="M385,976.45a9.61,9.61,0,0,0,11.5.9s.25,4.7,7.54,5.26,8.56,3.43,7.37,7.41l-.67,2.23L382.36,988Z" data-name="Path 695"/>
<path class="cls-21" transform="translate(-1754 -1419)" d="M382.36,993.95l-.56,3.11,28.6,4.37.35-3.18Z" data-name="Path 696"/>
<path class="cls-22" transform="translate(-1754 -1413)" d="m389.26 989c1.49-6.45-5.56-6.87-5.56-6.87l-1.34 5.87 6.9 1z" data-name="Path 697"/>
<rect class="cls-20" transform="translate(-1592.9 -570)" width="82.53" height="5.95" data-name="Rectangle 467"/>
<circle class="cls-16" transform="translate(-1574.3 -558.28)" cx="22.59" cy="22.59" r="22.59" data-name="Ellipse 70"/>
<path class="cls-22" transform="translate(-1754 -1413)" d="M324.87,737.52c-.52.41-1,.85-1.51,1.3a16.881,16.881,0,0,0-1.39,1.42h0a.32.32,0,0,1-.45,0,.31.31,0,0,1-.07-.4c.36-.61.76-1.17,1.17-1.73s.86-1.09,1.32-1.61a.67.67,0,0,1,1-.07.68.68,0,0,1,.07,1Z" data-name="Path 698"/>
<path class="cls-22" transform="translate(-1754 -1413)" d="M359,735.51a7,7,0,0,0-.7-.53c-.26-.19-.54-.36-.82-.54a19.69,19.69,0,0,0-1.76-1A26,26,0,0,0,352,732a31.911,31.911,0,0,0-8.17-1.23h-3.15l-1,.07a28.642,28.642,0,0,0-4.12.72,27.26,27.26,0,0,0-7.73,3.32.31.31,0,0,1-.44-.1.3.3,0,0,1,.08-.42,28.182,28.182,0,0,1,7.72-4,29.682,29.682,0,0,1,4.27-1.09l1.09-.17,1.09-.11c.73-.09,1.46-.16,2.2-.18a34.322,34.322,0,0,1,8.85.65,29,29,0,0,1,4.33,1.28c.71.29,1.41.59,2.1.94.35.18.69.36,1,.56s.66.4,1.07.7a1.664,1.664,0,1,1-2,2.66l-.11-.08Z" data-name="Path 699"/>
<path class="cls-36" transform="translate(-1754 -1413)" d="M400.25,971.33l-12-1.44a374.124,374.124,0,0,1,2.84-38.32c2.63-20.6,1.62-22.55-5-26.82s-52.28-9.76-58.44-11.24c-4.14-1-3.58-9-2.77-14.14h-7S316,891,317.15,894.91s5,9.72,18.11,9.34c9.47-.27,33.79,3.35,46.48,5.37a9,9,0,0,1,7.53,9.35c-.67,11.82-3.59,42.9-4.07,54.55l14.45,1.5s.22-1.37.6-3.69Z" data-name="Path 700"/>
<path class="cls-19" transform="translate(-1754 -1413)" d="m326.31 802.7h-2.78a29.11 29.11 0 0 1 4.72-7.27s20.23 8 22.54 10.91 1.21 7.51 1.21 7.51a41.94 41.94 0 0 0-25.69-11.15z" data-name="Path 701"/>
<path class="cls-37" transform="translate(-1754 -1413)" d="m352 813.85a41.94 41.94 0 0 0-25.69-11.15s-10.05 9.09-10.05 21v56.09s28 8 44.46 0v-29.6c0-4.6-2.91-28.35-8.72-36.34z" data-name="Path 702"/>
<path class="cls-16" transform="translate(-1754 -1413)" d="M344.13,876.17a22.28,22.28,0,0,1-21-22.25V816.67a26.58,26.58,0,0,1,4.34-13.86l-1.17-.11s-10.05,9.09-10.05,21v56.09s28,8,44.46,0v-4.64a60.656,60.656,0,0,1-16.58,1.02Z" data-name="Path 703"/>
<path class="cls-2" transform="translate(-1754 -1413)" d="M410,861.43a30.26,30.26,0,0,0-3.85-8.14,2.1,2.1,0,0,0-1.74-.93H393.7l-37.14.12-15.82-32a9.209,9.209,0,0,0-.67-1.12,8.65,8.65,0,0,0-12.37-1.88,8.81,8.81,0,0,0-1.65,12l22.1,31.57.4.57a5.22,5.22,0,0,0,4.76,2.21l40.39-3.7h0s4.65,1.21,5.22,0,3.44-.77,3.44,1.05-2.95,2-2.95,3.85c0,4.94,5.58,4.37,6.8,3.16S410.74,863.54,410,861.43Z" data-name="Path 704"/>
<circle class="cls-38" transform="translate(-1357.6 -555.21)" cx="3.34" cy="3.34" r="3.34" data-name="Ellipse 71"/>
<path class="cls-39" transform="translate(-1754 -1413)" d="M394.09,860.27a4.64,4.64,0,0,0-3.31-2.48c-2.34-.34-23.38.86-30.71,2.09s-8.29-.59-9.22-1.67c-.26-.31-.69-.85-1.15-1.47a4,4,0,0,1,1.06-5.78l3.86-2.39-13.88-28.05a9.205,9.205,0,0,0-.67-1.12,8.65,8.65,0,0,0-12.37-1.88,8.81,8.81,0,0,0-1.65,12l22.1,31.57.4.57a5.22,5.22,0,0,0,4.76,2.21l40.39-3.7h0Z" data-name="Path 705"/>
<path class="cls-19" transform="translate(-1754 -1413)" d="m343.57 818.92c-2.58-4.44-10.18-9.17-15.77-5.87s-7 9.89-3.29 16.77 14.33 24.07 14.33 24.07l18.92-10.75s-11.61-19.77-14.19-24.22z" data-name="Path 706"/>
<path class="cls-36" transform="translate(-1754 -1413)" d="M349.4,841.87a11.34,11.34,0,0,1-15.32-4c-3.12-5.16-6.71-11.2-8.58-14.64a16.6,16.6,0,0,1-1.93-5.73c-1.72,3.41-1.51,7.8.93,12.32,3.73,6.88,14.34,24.07,14.34,24.07l18.91-10.75-2.65-4.51Z" data-name="Path 707"/>
<path class="cls-40" transform="translate(-1754 -1413)" d="m275.68 909.87h-111.25a2.55 2.55 0 0 0 2.55 2.55h110.31a4.89 4.89 0 0 1 4.88 4.88v3.26a2.56 2.56 0 0 0 2.55 2.55c1.61-11.91-4.79-13.24-9.04-13.24z" data-name="Path 708"/>
<path class="cls-8" transform="translate(-1754 -1413)" d="m289.81 921a4.89 4.89 0 1 1-4.89-4.89 4.89 4.89 0 0 1 4.89 4.89z" data-name="Path 709"/>
<path class="cls-18" transform="translate(-1754 -1413)" d="m287.28 921a2.36 2.36 0 1 1-2.36-2.35 2.36 2.36 0 0 1 2.36 2.35z" data-name="Path 710"/>
<path class="cls-18" transform="translate(-1754 -1413)" d="M235.42,934a2.55,2.55,0,0,1-1.8-4.36,29.36,29.36,0,0,0,8.6-20.67V861.09a2.55,2.55,0,1,1,5.1,0V909a34.46,34.46,0,0,1-10.1,24.28,2.54,2.54,0,0,1-1.8.72Z" data-name="Path 711"/>
<path class="cls-40" transform="translate(-1754 -1413)" d="M244.77,858.54a2.55,2.55,0,0,0-2.55,2.55V909a29.36,29.36,0,0,1-8.6,20.67,2.54,2.54,0,0,0,0,3.6,38.88,38.88,0,0,0,11.16-28.57Z" data-name="Path 712"/>
<path class="cls-8" transform="translate(-1754 -1413)" d="m240.52 931.53a4.89 4.89 0 1 1-4.89-4.89 4.89 4.89 0 0 1 4.89 4.89z" data-name="Path 713"/>
<path class="cls-18" transform="translate(-1754 -1413)" d="m238 931.53a2.36 2.36 0 1 1-2.36-2.36 2.36 2.36 0 0 1 2.36 2.36z" data-name="Path 714"/>
<path class="cls-8" transform="translate(-1754 -1413)" d="M201,975s.73-8.91-5.64-9.45-5.47,6.71-5.47,6.71-7.33-4.15-10,1.22,4.21,8.83,6.58,8.64c-3.53.28-5.72,4.91-3.32,7.59,3.32,3.7,10.1-.8,13.09-3l24.8,3.1Z" data-name="Path 715"/>
<path class="cls-41" transform="translate(-1754 -1413)" d="m189.12 980.13c-2.15 0.17-8.44-3-6-8a4.69 4.69 0 0 1 1.12-1.48 4.79 4.79 0 0 0-4.46 2.75c-2.58 5.1 3.55 8.48 6.2 8.64a4.18 4.18 0 0 1 3.14-1.91z" data-name="Path 716"/>
<path class="cls-41" transform="translate(-1754 -1413)" d="M216.87,986.71l-15.09-1.91a9.92,9.92,0,0,0-6.45,1.37c-3,1.85-7,3.48-9.22,1a4.11,4.11,0,0,1-.16-5c-3.27.6-5.19,5-2.89,7.52,3.32,3.7,10.1-.8,13.09-3l24.8,3.1Z" data-name="Path 717"/>
<path class="cls-8" transform="translate(-1754 -1413)" d="M220,984.79,208.74,976a5.53,5.53,0,0,1-2.11-5.36A3,3,0,0,1,209,968c4.08-1,5.4,4,4.21,6.06Z" data-name="Path 718"/>
<path class="cls-8" transform="translate(-1754 -1413)" d="M215.16,992.48,201,990.75a5.54,5.54,0,0,0-5.28,2.3,3,3,0,0,0-.2,3.51c2.21,3.56,6.65,1,7.27-1.3Z" data-name="Path 719"/>
<path class="cls-18" transform="translate(-1754 -1413)" d="M431.59,875.17c.93-1.43,1.29-3.89,1.43-5.74a2.07,2.07,0,0,0-2.42.24l-.18.16a10.111,10.111,0,0,1-1,3.95c-1.88,2.9-3,7.57,5.39,18.07,7.92,9.95,23.09,40.32,23.73,43.18-.09,2-5,21-16,37.48-6.63,8.67-12.51,15.93-15.35,18.94a26,26,0,0,1-16.87,7.73c-5.19.43-10.5-.51-15.64-1.43-1.92-.34-3.9-.69-5.86-1l-3.25-.45c-1.83-.26-3.67-.51-5.51-.79L359,992.43l-.61-.09a1.28,1.28,0,0,0-.37,2.53l.61.08,21.13,3.12c1.84.27,3.69.53,5.53.78l3.24.46c1.91.27,3.88.62,5.77,1a76.529,76.529,0,0,0,13.4,1.58,23.147,23.147,0,0,0,2.9-.12,28.47,28.47,0,0,0,18.51-8.52C432,990.12,438,982.78,444.66,974v-.06a123.608,123.608,0,0,0,12.38-24.9c2.69-7.29,4.07-12.9,4-14.15-.07-2.67-16.39-34.72-24.29-44.65C428.55,879.85,430.76,876.45,431.59,875.17Z" data-name="Path 720"/>
</g>
</svg>
