<?xml version="1.0" encoding="iso-8859-1"?>
<!-- Generator: Adobe Illustrator 19.0.0, SVG Export Plug-In . SVG Version: 6.00 Build 0)  -->
<svg version="1.1" id="Capa_1" xmlns="http://www.w3.org/2000/svg" xmlns:xlink="http://www.w3.org/1999/xlink" x="0px" y="0px"
	 viewBox="0 0 480 480" style="fill:#3D6889;" xml:space="preserve">
<g>
	<path style="fill:#73D0F4;" d="M232,232v-47.824c-0.808-0.056-1.608-0.176-2.424-0.176H200h-29.576
		c-0.816,0-1.616,0.12-2.424,0.176V232H232z"/>
	<path style="fill:#73D0F4;" d="M168,280v-48v-47.824c-5.936,0.424-11.696,2.288-16.672,5.6
		C141.752,196.168,136,206.912,136,218.424V248v32H168z"/>
	<polygon style="fill:#73D0F4;" points="392,112 368,112 320,112 288,112 288,192 320,192 320,136 352,136 384,136 416,136 416,192 
		472,192 472,112 440,112 	"/>
</g>
<rect x="168" y="232" style="fill:#73D0F4;" width="64" height="48"/>
<path style="fill:#73D0F4;" d="M232,280h32v-61.576c0-11.512-5.752-22.256-15.328-28.64c-4.976-3.32-10.736-5.184-16.672-5.6V232
	V280z"/>
<polygon style="fill:#E4D9B3;" points="232,280 168,280 136,280 88,280 8,280 8,472 472,472 472,280 264,280 "/>
<g>
	<polygon style="fill:#73D0F4;" points="88,248 88,232 32,232 8,232 8,280 88,280 	"/>
	<rect x="88" y="248" style="fill:#73D0F4;" width="48" height="32"/>
	<polygon style="fill:#73D0F4;" points="56,176 8,176 8,208 32,208 56,208 	"/>
	<path style="fill:#73D0F4;" d="M208,112l40,24c0-26.512-8-56-48-56s-48,29.488-48,56C152,136,200,136,208,112z"/>
</g>
<path style="fill:#FFFFFF;" d="M248,136l-40-24c-8,24-56,24-56,24c0,26.512,31.032,48,48,48S248,162.512,248,136z"/>
<g>
	<polygon style="fill:#73D0F4;" points="368,48 360,48 328,48 320,48 320,112 368,112 	"/>
	<rect x="328" y="8" style="fill:#73D0F4;" width="32" height="40"/>
	<polygon style="fill:#73D0F4;" points="440,48 432,48 400,48 392,48 392,112 440,112 	"/>
	<rect x="400" y="8" style="fill:#73D0F4;" width="32" height="40"/>
	<rect x="320" y="136" style="fill:#73D0F4;" width="32" height="56"/>
	<rect x="352" y="136" style="fill:#73D0F4;" width="32" height="56"/>
	<rect x="384" y="136" style="fill:#73D0F4;" width="32" height="56"/>
</g>
<rect x="290" style="fill:#73D0F4;" width="182" height="112"/>
<g>
	<path style="fill:#23374E;" d="M472,272H272v-53.576c0-14.216-7.064-27.416-18.888-35.296c-5.496-3.672-11.72-5.92-18.208-6.736
		C246.776,166.112,256,151.712,256,136c0-52.896-30.456-64-56-64s-56,11.104-56,64c0,15.712,9.224,30.112,21.096,40.392
		c-6.488,0.816-12.712,3.064-18.2,6.736C135.064,191.008,128,204.2,128,218.424V240H96v-8c0-4.424-3.584-8-8-8H40v-8h16
		c4.416,0,8-3.576,8-8v-32c0-4.424-3.584-8-8-8H8c-4.416,0-8,3.576-8,8v32c0,4.424,3.584,8,8,8h16v8H8c-4.416,0-8,3.576-8,8v48v192
		c0,4.424,3.584,8,8,8h464c4.416,0,8-3.576,8-8V280C480,275.576,476.416,272,472,272z M16,184h32v16H16V184z M256,218.424V272h-16
		v-77.808c1.464,0.632,2.888,1.352,4.232,2.248C251.6,201.352,256,209.568,256,218.424z M161.112,143.584
		c13.696-1.128,38.424-5.272,49.92-20.44l28.6,17.16C236.416,159.896,212.28,176,200,176
		C188.408,176,166.272,161.664,161.112,143.584z M224,192v32h-48v-32H224z M176,240h48v32h-48V240z M200,88
		c22.704,0,35.176,10.736,38.776,33.136l-26.656-15.992c-2.08-1.248-4.608-1.496-6.896-0.64c-2.272,0.832-4.04,2.672-4.816,4.968
		c-4.048,12.144-25.896,16.736-39.968,18.072C162.584,100.72,175.232,88,200,88z M144,218.424c0-8.848,4.4-17.072,11.768-21.984
		c1.344-0.896,2.768-1.616,4.232-2.248V272h-16v-24V218.424z M128,256v16H96v-16H128z M16,240h64v8v24H16V240z M464,464H16V288h72
		h48h328V464z"/>
	<path style="fill:#23374E;" d="M464,104h-16V48c0-4.424-3.584-8-8-8V8c0-4.424-3.584-8-8-8h-32c-4.416,0-8,3.576-8,8v32
		c-4.416,0-8,3.576-8,8v56h-8V48c0-4.424-3.584-8-8-8V8c0-4.424-3.584-8-8-8h-32c-4.416,0-8,3.576-8,8v32c-4.416,0-8,3.576-8,8v56
		h-16V0h-16v192c0,4.424,3.584,8,8,8h32h32h32h32h56c4.416,0,8-3.576,8-8V0h-16V104z M408,16h16v24h-16V16z M400,56h32v48h-32V56z
		 M336,16h16v24h-16V16z M328,56h32v48h-32V56z M344,184h-16v-40h16V184z M360,144h16v40h-16V144z M392,184v-40h16v40H392z M424,184
		v-48c0-4.424-3.584-8-8-8h-32h-32h-32c-4.416,0-8,3.576-8,8v48h-16v-64h24h48h24h48h24v64H424z"/>
</g>
</svg>
